<svg xmlns="http://www.w3.org/2000/svg" width="40" height="40" viewBox="0 0 40 40">
    <path fill-rule="evenodd" clip-rule="evenodd" fill="#00897B" d="M0-.002h40v40.004h-40z" />
    <path fill="#fff"
        d="M14.596 13.836v1.827h10.809v-1.827h-10.809zm0 5.327h10.809v-1.827h-10.809v1.827zm0 3.501h10.809v-1.827h-10.809v1.827zm0 3.5h10.809v-1.826h-10.809v1.826z" />
    <path
        d="M12.756 28.167h14.488v-6.45l-.263.014c-4.146 0-7.52-3.417-7.52-7.616 0-.794.121-1.56.345-2.28h-7.051v16.332z"
        fill="none" />
    <path fill="#fff"
        d="M27.244 28.167h-14.488v-16.333h7.051c.209-.671.51-1.301.884-1.878h-9.924v20.088h18.467v-8.663c-.631.201-1.3.312-1.989.336v6.45z" />
    <path fill="#00897B"
        d="M33.212 13.321c0-4.199-3.373-7.614-7.519-7.614-2.631 0-4.947 1.378-6.291 3.456h8.543v11.425c3.049-.973 5.267-3.862 5.267-7.267zM26.981 21.73l.263-.014v-9.882h-7.438c-.224.72-.345 1.486-.345 2.28.001 4.2 3.374 7.616 7.52 7.616z" />
    <ellipse cx="26.982" cy="14.115" rx="7.02" ry="7.115" fill="none" />
    <path fill="#fff"
        d="M26.982 6c-4.422 0-8.02 3.64-8.02 8.114 0 4.475 3.598 8.116 8.02 8.116s8.018-3.641 8.018-8.116c0-4.474-3.596-8.114-8.018-8.114zm0 15.23c-3.877 0-7.02-3.186-7.02-7.116 0-3.93 3.143-7.114 7.02-7.114 3.875 0 7.018 3.185 7.018 7.114 0 3.931-3.143 7.116-7.018 7.116z" />
    <path fill="#FF00F7" d="M71 14h5v10h-5z" />
    <path fill="#fff"
        d="M32.724 14.147c0 3.054-2.441 5.529-5.455 5.529-3.012 0-5.453-2.476-5.453-5.529s2.441-5.529 5.453-5.529c3.013 0 5.455 2.475 5.455 5.529z" />
    <path fill="#00897B"
        d="M29.681 12.981l-.747-.812-1.727 1.635-2.89-2.837-.76.797 3.031 2.974.557-.581.601.654z" />
</svg>