<svg xmlns="http://www.w3.org/2000/svg" xmlns:xlink="http://www.w3.org/1999/xlink" width="35"
    height="28" viewBox="0 0 35 28">
    <defs>
        <path id="a"
            d="M23.564 7.383c3.999 1.863 6.531 4.621 6.531 7.699 0 5.609-8.41 10.156-18.784 10.156-3.809 0-7.352-.613-10.312-1.666 3.444 2.216 8.536 3.619 14.216 3.619 10.375 0 18.785-4.677 18.785-10.447 0-4.102-4.25-7.651-10.436-9.361z" />
    </defs>
    <use xlink:href="#a" overflow="visible" fill="#FFFFFF" />
    <clipPath id="b">
        <use xlink:href="#a" overflow="visible" />
    </clipPath>
    <path clip-path="url(#b)" fill="#FFFFFF"
        d="M1 27.191h33-33zM1 27.066h33v.125h-33zM1 26.939h33v.127h-33zM1 26.814h33v.125h-33zM1 26.689h33v.125h-33zM1 26.564h33v.125h-33zM1 26.438h33v.126h-33zM1 26.312h33v.126h-33zM1 26.188h33v.124h-33zM1 26.062h33v.126h-33zM1 25.938h33v.125h-33zM1 25.812h33v.125h-33zM1 25.686h33v.127h-33zM1 25.561h33v.125h-33zM1 25.436h33v.125h-33zM1 25.311h33v.125h-33zM1 25.186h33v.125h-33zM1 25.061h33v.125h-33zM1 24.934h33v.127h-33zM1 24.809h33v.125h-33zM1 24.684h33v.125h-33zM1 24.559h33v.125h-33zM1 24.434h33v.125h-33zM1 24.307h33v.127h-33zM1 24.183h33v.124h-33zM1 24.057h33v.126h-33zM1 23.932h33v.125h-33zM1 23.807h33v.125h-33zM1 23.68h33v.127h-33zM1 23.555h33v.125h-33zM1 23.43h33v.125h-33zM1 23.305h33v.125h-33zM1 23.18h33v.125h-33zM1 23.055h33v.125h-33zM1 22.929h33v.126h-33zM1 22.803h33v.126h-33zM1 22.678h33v.125h-33zM1 22.553h33v.125h-33zM1 22.428h33v.125h-33zM1 22.301h33v.127h-33zM1 22.177h33v.124h-33zM1 22.051h33v.126h-33zM1 21.926h33v.125h-33zM1 21.801h33v.125h-33zM1 21.674h33v.127h-33zM1 21.55h33v.124h-33zM1 21.424h33v.126h-33zM1 21.299h33v.125h-33zM1 21.174h33v.125h-33zM1 21.049h33v.125h-33zM1 20.923h33v.126h-33zM1 20.797h33v.126h-33zM1 20.672h33v.125h-33zM1 20.547h33v.125h-33zM1 20.422h33v.125h-33zM1 20.295h33v.127h-33zM1 20.171h33v.124h-33zM1 20.045h33v.126h-33zM1 19.92h33v.125h-33zM1 19.795h33v.125h-33zM1 19.668h33v.127h-33zM1 19.544h33v.124h-33zM1 19.418h33v.126h-33zM1 19.293h33v.125h-33zM1 19.168h33v.125h-33zM1 19.043h33v.125h-33zM1 18.917h33v.126h-33zM1 18.791h33v.126h-33zM1 18.666h33v.125h-33zM1 18.541h33v.125h-33zM1 18.416h33v.125h-33zM1 18.29h33v.126h-33zM1 18.165h33v.125h-33zM1 18.039h33v.126h-33zM1 17.914h33v.125h-33zM1 17.789h33v.125h-33zM1 17.663h33v.126h-33zM1 17.538h33v.125h-33zM1 17.412h33v.126h-33zM1 17.287h33v.125h-33zM1 17.162h33v.125h-33zM1 17.037h33v.125h-33zM1 16.911h33v.126h-33zM1 16.785h33v.126h-33zM1 16.66h33v.125h-33zM1 16.535h33v.125h-33zM1 16.41h33v.125h-33zM1 16.284h33v.126h-33zM1 16.159h33v.125h-33zM1 16.033h33v.126h-33zM1 15.908h33v.125h-33zM1 15.783h33v.125h-33zM1 15.657h33v.126h-33zM1 15.532h33v.125h-33zM1 15.406h33v.126h-33zM1 15.281h33v.125h-33zM1 15.156h33v.125h-33zM1 15.031h33v.125h-33zM1 14.905h33v.126h-33zM1 14.779h33v.126h-33zM1 14.654h33v.125h-33zM1 14.529h33v.125h-33zM1 14.403h33v.126h-33zM1 14.278h33v.125h-33zM1 14.152h33v.126h-33zM1 14.027h33v.125h-33zM1 13.902h33v.125h-33zM1 13.776h33v.126h-33zM1 13.651h33v.125h-33zM1 13.526h33v.125h-33zM1 13.4h33v.126h-33zM1 13.275h33v.125h-33zM1 13.149h33v.126h-33zM1 13.024h33v.125h-33zM1 12.899h33v.125h-33zM1 12.773h33v.126h-33zM1 12.648h33v.125h-33zM1 12.523h33v.125h-33zM1 12.397h33v.126h-33zM1 12.272h33v.125h-33zM1 12.146h33v.126h-33zM1 12.021h33v.125h-33zM1 11.896h33v.125h-33zM1 11.771h33v.126h-33zM1 11.646h33v.125h-33zM1 11.521h33v.125h-33zM1 11.395h33v.126h-33zM1 11.27h33v.125h-33zM1 11.144h33v.126h-33zM1 11.019h33v.125h-33zM1 10.894h33v.125h-33zM1 10.768h33v.126h-33zM1 10.643h33v.125h-33zM1 10.518h33v.125h-33zM1 10.392h33v.126h-33zM1 10.267h33v.125h-33zM1 10.141h33v.126h-33zM1 10.016h33v.125h-33zM1 9.891h33v.125h-33zM1 9.765h33v.126h-33zM1 9.64h33v.125h-33zM1 9.515h33v.125h-33zM1 9.389h33v.126h-33zM1 9.264h33v.125h-33zM1 9.138h33v.126h-33zM1 9.013h33v.125h-33zM1 8.888h33v.125h-33zM1 8.762h33v.126h-33zM1 8.637h33v.125h-33zM1 8.512h33v.125h-33zM1 8.386h33v.126h-33zM1 8.261h33v.125h-33zM1 8.135h33v.126h-33zM1 8.01h33v.125h-33zM1 7.885h33v.125h-33zM1 7.759h33v.126h-33zM1 7.634h33v.125h-33zM1 7.509h33v.125h-33zM1 7.383h33v.126h-33zM34 7.383h-33 33z" />
    <defs>
        <path id="c"
            d="M7.675 11.021c0-5.141 8.281-9.309 18.497-9.309 1.647 0 3.244.108 4.766.312-2.674-.774-5.756-1.217-9.039-1.217-10.216 0-18.497 4.273-18.497 9.545 0 5.011 7.48 9.119 16.991 9.514-7.385-1.22-12.718-4.718-12.718-8.845z" />
    </defs>
    <use xlink:href="#c" overflow="visible" fill="#FFFFFF" />
    <clipPath id="d">
        <use xlink:href="#c" overflow="visible" />
    </clipPath>
    <path clip-path="url(#d)" fill="#FFFFFF"
        d="M3.401 19.867h27.536-27.536zM3.401 19.746h27.536v.121h-27.536zM3.401 19.626h27.536v.12h-27.536zM3.401 19.506h27.536v.12h-27.536zM3.401 19.385h27.536v.121h-27.536zM3.401 19.264h27.536v.121h-27.536zM3.401 19.145h27.536v.119h-27.536zM3.401 19.023h27.536v.121h-27.536zM3.401 18.902h27.536v.121h-27.536zM3.401 18.781h27.536v.121h-27.536zM3.401 18.66h27.536v.121h-27.536zM3.401 18.541h27.536v.119h-27.536zM3.401 18.42h27.536v.121h-27.536zM3.401 18.299h27.536v.121h-27.536zM3.401 18.179h27.536v.12h-27.536zM3.401 18.059h27.536v.12h-27.536zM3.401 17.938h27.536v.121h-27.536zM3.401 17.816h27.536v.121h-27.536zM3.401 17.696h27.536v.12h-27.536zM3.401 17.576h27.536v.12h-27.536zM3.401 17.455h27.536v.121h-27.536zM3.401 17.334h27.536v.121h-27.536zM3.401 17.215h27.536v.119h-27.536zM3.401 17.093h27.536v.122h-27.536zM3.401 16.973h27.536v.12h-27.536zM3.401 16.852h27.536v.121h-27.536zM3.401 16.73h27.536v.121h-27.536zM3.401 16.611h27.536v.119h-27.536zM3.401 16.49h27.536v.121h-27.536zM3.401 16.369h27.536v.121h-27.536zM3.401 16.248h27.536v.121h-27.536zM3.401 16.129h27.536v.119h-27.536zM3.401 16.008h27.536v.121h-27.536zM3.401 15.887h27.536v.121h-27.536zM3.401 15.766h27.536v.121h-27.536zM3.401 15.646h27.536v.119h-27.536zM3.401 15.525h27.536v.121h-27.536zM3.401 15.404h27.536v.121h-27.536zM3.401 15.283h27.536v.121h-27.536zM3.401 15.163h27.536v.12h-27.536zM3.401 15.043h27.536v.12h-27.536zM3.401 14.922h27.536v.121h-27.536zM3.401 14.801h27.536v.121h-27.536zM3.401 14.682h27.536v.119h-27.536zM3.401 14.561h27.536v.121h-27.536zM3.401 14.439h27.536v.121h-27.536zM3.401 14.319h27.536v.12h-27.536zM3.401 14.197h27.536v.122h-27.536zM3.401 14.077h27.536v.12h-27.536zM3.401 13.956h27.536v.121h-27.536zM3.401 13.836h27.536v.12h-27.536zM3.401 13.715h27.536v.121h-27.536zM3.401 13.595h27.536v.12h-27.536zM3.401 13.475h27.536v.12h-27.536zM3.401 13.354h27.536v.121h-27.536zM3.401 13.233h27.536v.12h-27.536zM3.401 13.112h27.536v.121h-27.536zM3.401 12.992h27.536v.12h-27.536zM3.401 12.871h27.536v.121h-27.536zM3.401 12.751h27.536v.12h-27.536zM3.401 12.63h27.536v.121h-27.536zM3.401 12.509h27.536v.121h-27.536zM3.401 12.389h27.536v.12h-27.536zM3.401 12.268h27.536v.121h-27.536zM3.401 12.147h27.536v.12h-27.536zM3.401 12.026h27.536v.121h-27.536zM3.401 11.906h27.536v.12h-27.536zM3.401 11.785h27.536v.121h-27.536zM3.401 11.665h27.536v.12h-27.536zM3.401 11.545h27.536v.12h-27.536zM3.401 11.424h27.536v.121h-27.536zM3.401 11.304h27.536v.12h-27.536zM3.401 11.183h27.536v.121h-27.536zM3.401 11.062h27.536v.121h-27.536zM3.401 10.941h27.536v.12h-27.536zM3.401 10.82h27.536v.121h-27.536zM3.401 10.7h27.536v.12h-27.536zM3.401 10.579h27.536v.121h-27.536zM3.401 10.459h27.536v.12h-27.536zM3.401 10.338h27.536v.121h-27.536zM3.401 10.218h27.536v.12h-27.536zM3.401 10.097h27.536v.121h-27.536zM3.401 9.977h27.536v.12h-27.536zM3.401 9.855h27.536v.121h-27.536zM3.401 9.734h27.536v.121h-27.536zM3.401 9.614h27.536v.12h-27.536zM3.401 9.493h27.536v.121h-27.536zM3.401 9.373h27.536v.12h-27.536zM3.401 9.252h27.536v.121h-27.536zM3.401 9.132h27.536v.12h-27.536zM3.401 9.011h27.536v.121h-27.536zM3.401 8.891h27.536v.12h-27.536zM3.401 8.771h27.536v.12h-27.536zM3.401 8.649h27.536v.121h-27.536zM3.401 8.529h27.536v.12h-27.536zM3.401 8.408h27.536v.121h-27.536zM3.401 8.288h27.536v.12h-27.536zM3.401 8.167h27.536v.121h-27.536zM3.401 8.046h27.536v.121h-27.536zM3.401 7.926h27.536v.12h-27.536zM3.401 7.805h27.536v.121h-27.536zM3.401 7.685h27.536v.12h-27.536zM3.401 7.563h27.536v.121h-27.536zM3.401 7.443h27.536v.12h-27.536zM3.401 7.322h27.536v.121h-27.536zM3.401 7.202h27.536v.12h-27.536zM3.401 7.081h27.536v.121h-27.536zM3.401 6.961h27.536v.12h-27.536zM3.401 6.84h27.536v.121h-27.536zM3.401 6.72h27.536v.12h-27.536zM3.401 6.599h27.536v.121h-27.536zM3.401 6.478h27.536v.121h-27.536zM3.401 6.357h27.536v.12h-27.536zM3.401 6.236h27.536v.121h-27.536zM3.401 6.116h27.536v.12h-27.536zM3.401 5.996h27.536v.12h-27.536zM3.401 5.875h27.536v.121h-27.536zM3.401 5.755h27.536v.12h-27.536zM3.401 5.634h27.536v.121h-27.536zM3.401 5.514h27.536v.12h-27.536zM3.401 5.393h27.536v.121h-27.536zM3.401 5.272h27.536v.12h-27.536zM3.401 5.151h27.536v.121h-27.536zM3.401 5.03h27.536v.121h-27.536zM3.401 4.91h27.536v.12h-27.536zM3.401 4.789h27.536v.121h-27.536zM3.401 4.669h27.536v.12h-27.536zM3.401 4.548h27.536v.121h-27.536zM3.401 4.428h27.536v.12h-27.536zM3.401 4.307h27.536v.121h-27.536zM3.401 4.187h27.536v.12h-27.536zM3.401 4.065h27.536v.121h-27.536zM3.401 3.945h27.536v.12h-27.536zM3.401 3.825h27.536v.12h-27.536zM3.401 3.703h27.536v.122h-27.536zM3.401 3.584h27.536v.119h-27.536zM3.401 3.462h27.536v.122h-27.536zM3.401 3.342h27.536v.12h-27.536zM3.401 3.222h27.536v.12h-27.536zM3.401 3.101h27.536v.121h-27.536zM3.401 2.98h27.536v.12h-27.536zM3.401 2.859h27.536v.121h-27.536zM3.401 2.739h27.536v.12h-27.536zM3.401 2.618h27.536v.121h-27.536zM3.401 2.498h27.536v.12h-27.536zM3.401 2.377h27.536v.121h-27.536zM3.401 2.257h27.536v.12h-27.536zM3.401 2.136h27.536v.121h-27.536zM3.401 2.015h27.536v.121h-27.536zM3.401 1.895h27.536v.12h-27.536zM3.401 1.773h27.536v.121h-27.536zM3.401 1.653h27.536v.12h-27.536zM3.401 1.532h27.536v.121h-27.536zM3.401 1.412h27.536v.12h-27.536zM3.401 1.291h27.536v.121h-27.536zM3.401 1.171h27.536v.12h-27.536zM3.401 1.051h27.536v.12h-27.536zM3.401.93h27.536v.121h-27.536zM3.401.81h27.536v.12h-27.536zM3.401.809h27.536v.001h-27.536z" />
</svg>