<svg xmlns="http://www.w3.org/2000/svg" width="40" height="40" viewBox="0 0 40 40">
    <path fill="#fff"
        d="M24.35 16.853l-2.727 2.703c.031.127.053.26.053.396 0 .914-.746 1.66-1.668 1.66-.623 0-1.162-.424-1.449-.838h-2.305c-.229 0-.416-.205-.416-.432v-.789c0-.228.188-.433.416-.433h2.305c.287-.414.826-.836 1.449-.836.164 0 .32.04.471.085l2.701-2.677c.162-.161.428-.161.59 0l.58.576c.162.16.162.424 0 .585m5.494 4.748c.096-.827.164-1.103.164-1.668 0-5.473-4.49-9.93-10.01-9.93s-10.006 4.446-10.006 9.918c0 5.47 4.178 9.917 10.016 9.917v-.001c1.668-.005 3.76-.532 5.443-1.622l.049-.032 1.23 1.692c.137.185.303.155.369-.062l1.84-5.324c.068-.218-.064-.397-.293-.402l-5.703.001c-.23-.005-.309.146-.174.328l1.264 1.753c-1.248.794-2.357 1.177-4.025 1.183v.007c-4.17-.001-7.514-3.333-7.512-7.443 0-4.109 3.357-7.441 7.506-7.441 4.145 0 7.504 3.347 7.504 7.458 0 .568-.076.841-.199 1.668h2.537z" />
</svg>