<?xml version="1.0" encoding="utf-8"?>
<!-- Generator: Adobe Illustrator 23.1.1, SVG Export Plug-In . SVG Version: 6.00 Build 0)  -->
<svg version="1.1" id="Layer_1" xmlns="http://www.w3.org/2000/svg" xmlns:xlink="http://www.w3.org/1999/xlink" x="0px" y="0px"
	 viewBox="0 0 125 74.7" style="enable-background:new 0 0 125 74.7;" xml:space="preserve">
<style type="text/css">
	.st0{fill:#00292E;}
	.st1{fill:url(#SVGID_1_);}
	.st2{fill:url(#SVGID_2_);}
</style>
<path class="st0" d="M1.6,52.1h9.3c5.4,0,8.9,2.8,8.9,7.6v0.1c0,5.1-3.9,7.8-9.2,7.8h-3v6.2h-6L1.6,52.1z M10.4,62.8
	c2.1,0,3.4-1.1,3.4-2.8v-0.1c0-1.8-1.3-2.8-3.5-2.8H7.6v5.7L10.4,62.8L10.4,62.8z"/>
<path class="st0" d="M23.6,64.2V52.1h6v12c0,3.1,1.6,4.6,4,4.6s4-1.4,4-4.4V52.1h6v12c0,6.9-4,10-10.1,10S23.6,71,23.6,64.2z"/>
<path class="st0" d="M48.8,52.1H59c3.3,0,5.6,0.9,7,2.3c1.3,1.3,2,3.1,1.9,5v0.1c0.1,2.9-1.7,5.6-4.4,6.7l5.2,7.5h-6.8l-4.3-6.5
	h-2.7v6.5h-6L48.8,52.1L48.8,52.1z M58.8,62.4c2,0,3.2-1,3.2-2.6v-0.1c0-1.7-1.3-2.6-3.2-2.6h-4v5.2L58.8,62.4z"/>
<path class="st0" d="M72.5,52.1h6.3l5.1,8.4l5.2-8.4h6.3v21.6h-6V61.3L84,69.7h-0.1l-5.5-8.4v12.4h-5.9L72.5,52.1L72.5,52.1z"/>
<path class="st0" d="M100.2,62.9L100.2,62.9c0-6.3,5.1-11.3,11.4-11.3c0.1,0,0.2,0,0.3,0c6.7,0,11.6,5,11.6,11.2v0.1
	c0,6.2-5.1,11.3-11.4,11.2c-0.1,0-0.2,0-0.3,0C105.1,74.1,100.2,69.1,100.2,62.9z M117.3,62.9L117.3,62.9c0.2-3.1-2.2-5.8-5.3-5.9
	c-0.1,0-0.2,0-0.3,0c-3,0-5.5,2.5-5.5,5.5c0,0.1,0,0.2,0,0.2v0.1c-0.1,3.1,2.3,5.7,5.4,5.8c0.1,0,0.1,0,0.2,0c3,0,5.5-2.5,5.5-5.6
	C117.3,63.1,117.3,63,117.3,62.9z"/>
<linearGradient id="SVGID_1_" gradientUnits="userSpaceOnUse" x1="35.41" y1="108.205" x2="88.45" y2="108.205" gradientTransform="matrix(1 0 0 1 0 -88)">
	<stop  offset="0.15" style="stop-color:#FAA61A"/>
	<stop  offset="0.85" style="stop-color:#20BEC6"/>
</linearGradient>
<polygon class="st1" points="62.1,1 35.6,14 35.6,39.4 35.6,39.4 44.1,39.4 44.1,39.4 44.1,19.7 62.1,11.4 80.1,19.7 80.1,39.4 
	88.6,39.4 88.6,14 "/>
<linearGradient id="SVGID_2_" gradientUnits="userSpaceOnUse" x1="52.98" y1="117.7" x2="70.98" y2="117.7" gradientTransform="matrix(1 0 0 1 0 -88)">
	<stop  offset="0.15" style="stop-color:#FAA61A"/>
	<stop  offset="0.85" style="stop-color:#20BEC6"/>
</linearGradient>
<polygon class="st2" points="62.1,20 62.1,39.4 71.1,39.4 71.1,24.1 "/>
</svg>
