<svg xmlns="http://www.w3.org/2000/svg" width="14.556" height="19.572" viewBox="0 0 14.556 19.572">
  <g id="Group_2396"  transform="translate(-2475.868 -696.932)">
    <path id="Soustraction_35"  d="M7.279,19.6a7.11,7.11,0,0,1-2.836-.584,7.251,7.251,0,0,1-2.314-1.593A7.4,7.4,0,0,1,.57,15.06a7.526,7.526,0,0,1-.562-2.475H0V7.351H2.049V5.363A5.4,5.4,0,0,1,2.46,3.285a5.322,5.322,0,0,1,1.125-1.7,5.161,5.161,0,0,1,7.394,0,5.34,5.34,0,0,1,1.12,1.7,5.4,5.4,0,0,1,.408,2.078V7.351h2.049v5.234h-.012a7.484,7.484,0,0,1-2.12,4.837,7.253,7.253,0,0,1-2.31,1.594,7.087,7.087,0,0,1-2.836.583Zm-.1-9.845a1.376,1.376,0,0,0-1.333,1.408,1.438,1.438,0,0,0,.512,1.11l-.294,3H8.344l-.328-3H8.007a1.438,1.438,0,0,0,.5-1.1A1.378,1.378,0,0,0,7.178,9.754Zm-4.1-4.392V7.351h8.411V5.363h-.014a4.927,4.927,0,0,0-1.344-3.049A3.877,3.877,0,0,0,4.646,2.1c-.074.068-.145.14-.214.213A4.926,4.926,0,0,0,3.092,5.363Z" transform="translate(2475.868 696.905)" fill="#1e88e5"/>
    <rect id="Rectangle_2330"  width="3" height="3" transform="translate(2486 701.25)" fill="#fff"/>
  </g>
</svg>
