<?xml version="1.0" encoding="utf-8"?>
<!-- Generator: Adobe Illustrator 16.0.0, SVG Export Plug-In . SVG Version: 6.00 Build 0)  -->
<!DOCTYPE svg PUBLIC "-//W3C//DTD SVG 1.1//EN" "http://www.w3.org/Graphics/SVG/1.1/DTD/svg11.dtd">
<svg version="1.1" id="Layer_1" xmlns="http://www.w3.org/2000/svg" xmlns:xlink="http://www.w3.org/1999/xlink" x="0px" y="0px"
	 width="100px" height="100px" viewBox="0 0 100 100" enable-background="new 0 0 100 100" xml:space="preserve">
<g>
	<path fill-rule="evenodd" clip-rule="evenodd" fill="#00ACC0" d="M100,100H0V0h100V100z"/>
	<g>
		<path fill="#FFFFFF" d="M53.922,40.614l3.31-6.773c-2.454-0.535-5.004-0.825-7.624-0.825c-19.092,0-34.625,14.968-34.625,33.366
			h7.51c0-14.407,12.164-26.131,27.114-26.131C51.079,40.251,52.514,40.395,53.922,40.614z"/>
		<path fill="#FFFFFF" d="M64.109,36.095l-3.208,6.562c9.32,4.139,15.82,13.205,15.82,23.725h7.509
			C84.23,52.973,75.977,41.393,64.109,36.095z"/>
	</g>
	<path fill="#FFFFFF" d="M62.544,31.797c-0.302-0.137-0.729,0.012-0.958,0.332l-14.92,25.115c-2.547,0.415-4.494,2.542-4.494,5.115
		c0,2.872,2.417,5.203,5.396,5.203c2.978,0,5.395-2.331,5.395-5.203c0-1.133-0.385-2.174-1.024-3.029L62.87,32.726
		C62.988,32.354,62.841,31.935,62.544,31.797"/>
</g>
</svg>
