<?xml version="1.0" encoding="utf-8"?>
<!-- Generator: Adobe Illustrator 16.0.0, SVG Export Plug-In . SVG Version: 6.00 Build 0)  -->
<!DOCTYPE svg PUBLIC "-//W3C//DTD SVG 1.1//EN" "http://www.w3.org/Graphics/SVG/1.1/DTD/svg11.dtd">
<svg version="1.1" id="Layer_1" xmlns="http://www.w3.org/2000/svg" xmlns:xlink="http://www.w3.org/1999/xlink" x="0px" y="0px"
	 width="100px" height="100px" viewBox="0 0 100 100" enable-background="new 0 0 100 100" xml:space="preserve">
<path fill="#04ad92" d="M94.445,68.124L60.642,39.897V12.524C60.642,6.833,56.719,1,49.01,1c-7.71,0-11.9,5.833-11.9,11.524v27.373L3.307,68.124
	c-0.824,0.696-1.494,2.154-1.494,3.228v6.703c0,1.08,0.781,1.551,1.735,1.049l37.484-19.518v23.531l-10.218,8.277
	c-0.851,0.658-1.547,2.085-1.547,3.161v2.959c0,1.076,0.846,1.714,1.885,1.409l13.803-4.041c1.038-0.302,6.806-0.302,7.844,0
	l13.803,4.041c1.038,0.305,1.885-0.333,1.885-1.409v-2.959c0-1.076-0.697-2.503-1.547-3.165l-10.22-8.273V59.586l37.479,19.479
	c0.958,0.498,1.739,0.027,1.739-1.054v-6.66C95.938,70.278,95.263,68.82,94.445,68.124"/>
</svg>
