<?xml version="1.0" encoding="utf-8"?>
<!-- Generator: Adobe Illustrator 16.0.0, SVG Export Plug-In . SVG Version: 6.00 Build 0)  -->
<!DOCTYPE svg PUBLIC "-//W3C//DTD SVG 1.1//EN" "http://www.w3.org/Graphics/SVG/1.1/DTD/svg11.dtd">
<svg version="1.1" id="Layer_1" xmlns="http://www.w3.org/2000/svg" xmlns:xlink="http://www.w3.org/1999/xlink" x="0px" y="0px"
	 width="100px" height="100px" viewBox="0 0 100 100" enable-background="new 0 0 100 100" xml:space="preserve">
<path fill="#00838f" d="M53.016,90.652h-37.99V59.414L43.15,31.365l14.093,14.017l-2.164,9.667c-0.09,0.35-0.127,0.635-0.145,0.789
	l-0.019,0.109l-0.015,0.188c-0.151,1.911,0.452,3.759,1.695,5.209c1.234,1.438,2.966,2.313,4.869,2.464
	c0.15,0.015,0.317,0.019,0.485,0.021l-1.455,6.471L53.197,82.54l-0.064,0.098l-0.06,0.085c-0.614,1.18-0.963,2.29-1.042,3.406
	C51.905,87.795,52.278,89.309,53.016,90.652z M43.225,25.017L58.97,40.761c0.294-0.381,0.616-0.746,0.989-1.066l0.048-0.041
	l0.049-0.038l5.784-4.68L42.929,12.323L25.768,29.186V20.85h-8.057v17.133L1,54.622l6.31,6.347l7.882-7.901L43.225,25.017z
	 M62.855,43.077c-0.392,0.335-0.686,0.783-0.822,1.296l-2.634,11.758c-0.037,0.116-0.037,0.233-0.057,0.354
	c-0.119,1.489,0.981,2.767,2.474,2.885c1.396,0.118,2.574-0.943,2.868-2.22l2.2-10.09l4.163-3.357l-6.363,28.27l-7.66,12.856
	c-0.234,0.454-0.509,1.098-0.549,1.729c-0.178,2.218,1.492,4.162,3.71,4.339c1.573,0.116,2.946-0.688,3.772-1.964l8.229-13.88
	c0.177-0.371,0.747-1.273,0.805-1.708l2.004-9.146l8.562,9.401l2.71,14.114c0.434,1.67,1.808,3.043,3.633,3.183
	c2.221,0.174,4.167-1.473,4.341-3.69c0.021-0.298-0.038-0.493-0.018-0.827l-2.868-15.076c-0.08-0.45-0.256-0.882-0.472-1.275
	L80.317,57.565l2.691-11.879l2.257,4.458c0.158,0.295,0.396,0.571,0.668,0.786l8.938,6.164c0.434,0.196,0.786,0.354,1.217,0.392
	c1.493,0.119,2.79-0.98,2.906-2.474c0.061-0.923-0.353-1.805-1.06-2.334l-8.189-5.637l-6.01-11.914
	c-1.002-1.551-2.691-2.809-4.753-2.985c-1.553-0.12-2.985,0.432-4.165,1.258L62.855,43.077z M81.04,28.48
	c3.281,0.257,6.149-2.199,6.402-5.457c0.257-3.299-2.198-6.147-5.479-6.421c-3.26-0.254-6.127,2.201-6.402,5.478
	C75.306,25.357,77.763,28.222,81.04,28.48z"/>
</svg>
