<?xml version="1.0" encoding="utf-8"?>
<!-- Generator: Adobe Illustrator 16.0.0, SVG Export Plug-In . SVG Version: 6.00 Build 0)  -->
<!DOCTYPE svg PUBLIC "-//W3C//DTD SVG 1.1//EN" "http://www.w3.org/Graphics/SVG/1.1/DTD/svg11.dtd">
<svg version="1.1" id="Layer_1" xmlns="http://www.w3.org/2000/svg" xmlns:xlink="http://www.w3.org/1999/xlink" x="0px" y="0px"
	 width="100px" height="100px" viewBox="0 0 100 100" enable-background="new 0 0 100 100" xml:space="preserve">
<path fill="#00bc4e" d="M41.154,74.544c15.374-1.563,26.898-17.382,26.898-36.711C68.052,17.491,53.499,1,35.546,1
	C17.594,1,3.042,17.491,3.042,37.833c0,19.281,11.532,35.103,28.182,36.699c1.211,0.487,2.817,2.983-0.073,6.06
	c-0.518,0.552-0.778,1.556,0.52,1.686c0,0,1.416,0,3.2,0c-0.31,1.485-1.203,2.336-1.363,2.478l-0.144,0.138
	c-1.578,1.723-3.356,4.088-3.104,7.12c0.196,2.361,1.631,4.603,4.264,6.661C34.805,98.894,35.14,99,35.473,99
	c0.458,0,0.913-0.203,1.217-0.593c0.525-0.672,0.406-1.643-0.266-2.167c-1.927-1.508-2.966-3.016-3.088-4.484
	c-0.15-1.808,1.106-3.462,2.244-4.713c0.951-0.84,2.108-2.52,2.4-4.767c1.816,0,3.453,0,3.979,0c1.07,0,0.998-1.679,0.25-1.92
	C39.681,79.544,39.989,74.662,41.154,74.544z M43.53,11.799c0.375-1.216,1.653-1.909,2.871-1.539
	c0.594,0.178,14.571,4.617,15.403,26.264c0.049,1.278-0.947,2.355-2.226,2.404c-0.03,0-0.061,0.001-0.091,0.001
	c-1.238,0-2.265-0.979-2.313-2.228C56.475,18.516,45.519,14.84,45.052,14.693C43.84,14.309,43.155,13.015,43.53,11.799z"/>
<g>
	<path fill="#00bc4e" d="M77.902,55.245C88.99,54.118,97.301,42.71,97.301,28.769c0-14.669-10.496-26.562-23.443-26.562
		c-5.23,0-10.06,1.942-13.959,5.224c7.312,7.338,12.007,18.585,12.007,30.412c0,5.661-0.97,11.906-2.94,17.137
		c0.583,0.108,1.173,0.199,1.775,0.257c0.873,0.352,2.031,2.152-0.053,4.369c-0.374,0.398-0.562,1.124,0.374,1.216
		c0,0,1.213,0,2.665,0c0.164,0.509,0.152,1.251-0.637,2.112c-0.443,0.484-1.621,1.771-1.479,3.476
		c0.098,1.171,0.786,2.264,2.046,3.249c0.212,0.166,0.463,0.246,0.713,0.246c0.344,0,0.685-0.152,0.913-0.445
		c0.395-0.504,0.305-1.232-0.199-1.626c-0.502-0.393-1.112-0.992-1.164-1.616c-0.052-0.615,0.443-1.242,0.88-1.719
		c1.149-1.255,1.43-2.56,1.276-3.677c1.116,0,2.073,0,2.407,0c0.772,0,0.721-1.211,0.181-1.384
		C76.84,58.852,77.062,55.331,77.902,55.245z"/>
</g>
</svg>
