<?xml version="1.0" encoding="utf-8"?>
<!-- Generator: Adobe Illustrator 16.0.0, SVG Export Plug-In . SVG Version: 6.00 Build 0)  -->
<!DOCTYPE svg PUBLIC "-//W3C//DTD SVG 1.1//EN" "http://www.w3.org/Graphics/SVG/1.1/DTD/svg11.dtd">
<svg version="1.1" id="Layer_1" xmlns="http://www.w3.org/2000/svg" xmlns:xlink="http://www.w3.org/1999/xlink" x="0px" y="0px"
	 width="100px" height="100px" viewBox="0 0 100 100" enable-background="new 0 0 100 100" xml:space="preserve">
<rect fill="#0097a7" x="7.374" y="35.96" width="39.261" height="63.04"/>
<rect fill="#0097a7" x="53.023" y="61.364" width="39.603" height="37.405"/>
<path fill="#0097a7" d="M22.302,29.615l0.218-0.007l0,0L22.302,29.615L22.302,29.615z M26.603,34.255c0,0-11.773-5.43-7.488-19.518
	C20.256,10.989,24.732,8.438,22.099,1c0,0,14.673,3.461,13.918,22.13c-0.121,3.003-2.285,9.06-5.849,10.757
	c0,0,5.489-8.466-2.637-15.127C27.532,18.76,19.785,26.076,26.603,34.255z"/>
<path fill="#0097a7" d="M68.688,55.118h0.179l0,0H68.688L68.688,55.118z M72.085,59.012c0,0-9.478-4.72-5.633-16.118
	c1.023-3.031,4.74-5.005,2.772-11.141c0,0,11.894,3.186,10.82,18.408c-0.173,2.448-2.087,7.34-5.039,8.638
	c0,0,4.688-6.777-1.781-12.414C73.225,46.385,66.72,52.168,72.085,59.012z"/>
</svg>
