<?xml version="1.0" encoding="utf-8"?>
<!-- Generator: Adobe Illustrator 16.0.0, SVG Export Plug-In . SVG Version: 6.00 Build 0)  -->
<!DOCTYPE svg PUBLIC "-//W3C//DTD SVG 1.1//EN" "http://www.w3.org/Graphics/SVG/1.1/DTD/svg11.dtd">
<svg version="1.1" id="Layer_1" xmlns="http://www.w3.org/2000/svg" xmlns:xlink="http://www.w3.org/1999/xlink" x="0px" y="0px"
	 width="100px" height="100px" viewBox="0 0 100 100" enable-background="new 0 0 100 100" xml:space="preserve">
<path fill="#00bc4e" d="M60.918,95.937c0,1.686-1.375,3.063-3.062,3.063H39.481c-1.688,0-3.064-1.378-3.064-3.063V77.561
	c0-1.686,1.376-3.061,3.064-3.061h18.374c1.688,0,3.062,1.375,3.062,3.061V95.937z M60.918,28.564c0,1.686-0.27,4.413-0.599,6.064
	l-5.515,29.214c-0.321,1.651-1.973,4.532-3.661,4.532h-4.81c-1.685,0-3.336-2.881-3.67-4.532l-5.636-28.449
	c-0.334-1.651-0.609-5.143-0.609-6.829v-24.5C36.417,2.376,37.794,1,39.481,1h18.374c1.688,0,3.062,1.376,3.062,3.064V28.564z"/>
</svg>
