<?xml version="1.0" encoding="utf-8"?>
<!-- Generator: Adobe Illustrator 16.0.0, SVG Export Plug-In . SVG Version: 6.00 Build 0)  -->
<!DOCTYPE svg PUBLIC "-//W3C//DTD SVG 1.1//EN" "http://www.w3.org/Graphics/SVG/1.1/DTD/svg11.dtd">
<svg version="1.1" id="Layer_1" xmlns="http://www.w3.org/2000/svg" xmlns:xlink="http://www.w3.org/1999/xlink" x="0px" y="0px"
	 width="100px" height="100px" viewBox="0 0 100 100" enable-background="new 0 0 100 100" xml:space="preserve">
<path fill="#00838f" d="M49.562,25.168c-32.44,0-49,29.353-49,29.353s23.284,24.615,49,24.615c25.721,0,48.999-24.615,48.999-24.615
	S82.006,25.168,49.562,25.168 M46.697,55.724l-2.42,2.421c-1.773-1.126-3.104-2.832-3.88-4.807l2.681-2.68
	C43.379,52.886,44.742,54.778,46.697,55.724 M36.354,49.784c0,7.291,5.912,13.21,13.207,13.21c7.293,0,13.206-5.92,13.206-13.21
	c0-4.513-2.279-8.5-5.744-10.882c3.601,0.55,7.088,1.454,10.397,2.578c1.178,2.526,1.854,5.333,1.854,8.304
	c0,10.887-8.824,19.712-19.714,19.712c-10.886,0-19.715-8.825-19.715-19.712c0-2.901,0.646-5.647,1.771-8.127
	c3.289-1.188,6.787-2.161,10.464-2.741C38.627,41.296,36.354,45.274,36.354,49.784 M23.516,45.19
	c-0.26,1.493-0.421,3.021-0.421,4.593c0,7.186,2.869,13.694,7.514,18.457C20.99,64.049,13.421,57.829,9.804,54.52
	C12.467,52.067,17.303,48.415,23.516,45.19 M68.184,68.592c4.842-4.796,7.848-11.448,7.848-18.808c0-1.703-0.178-3.364-0.482-4.979
	c6.945,3.315,12.427,7.171,15.209,9.719C87.053,57.926,78.594,64.397,68.184,68.592"/>
</svg>
