<?xml version="1.0" encoding="utf-8"?>
<!-- Generator: Adobe Illustrator 16.0.0, SVG Export Plug-In . SVG Version: 6.00 Build 0)  -->
<!DOCTYPE svg PUBLIC "-//W3C//DTD SVG 1.1//EN" "http://www.w3.org/Graphics/SVG/1.1/DTD/svg11.dtd">
<svg version="1.1" id="Layer_1" xmlns="http://www.w3.org/2000/svg" xmlns:xlink="http://www.w3.org/1999/xlink" x="0px" y="0px"
	 width="100px" height="100px" viewBox="0 0 100 100" enable-background="new 0 0 100 100" xml:space="preserve">
<path fill="#a4a929" d="M98.792,75.664v3.144c0,1.019-0.19,1.441-1.209,1.441h-14.44c0.089-0.4,0.176-0.802,0.176-1.299c0,0,1.451-7.243-3.36-9.175
	c-4.81-1.933-5.723-3.633-6.979-6.592c-0.138-0.383,0.105-0.758,0.193-0.807c2.215-1.204,3.702-2.513,4.261-3.119
	c3.293-3.571,0.133-7.042-1.382-8.522c-0.511-0.499-1.07-1.043-1.591-1.65c-1.114-1.301-1.559-2.332-1.683-5.373
	c1.077-1.217,3.965-2.775,3.965-2.775s0.88-0.249,1.276-0.326c2.05-0.625,5.608-2.221,3.069-5.274
	c4.238,0.578,3.388,3.679,7.694,5.28c4.264,0.923,7.51,5.047,7.51,9.053c0,2.987-0.443,4.791-0.984,7.369h1.478
	c1.018,0,1.523,0.802,1.122,1.738l-1.32,3.112c-0.4,0.938-1.354,1.686-2.12,1.686c-0.301,0-0.566-0.2-0.794-0.42
	c-1.114,2.644-3.16,5.25-5.941,6.292C92.308,70.688,98.792,72.928,98.792,75.664 M57.529,72.895v6.065
	c0,0.71-0.581,1.289-1.29,1.289H2.082c-0.709,0-1.29-0.579-1.29-1.289v-6.065c0-2.714,0.513-3.83,2.579-5.003
	c1.66-0.945,10.316-7.352,15.474-9.604v-9.714c-2.578-1.171-2.578-2.986-2.578-5.759v-7.697c0-6.382,3.868-11.605,11.604-11.605
	c7.737,0,11.605,5.224,11.605,11.605v7.697c0,2.745-2.578,4.556-2.578,5.731v9.742c5.158,2.252,16.393,8.658,18.052,9.604
	C57.015,69.064,57.529,70.181,57.529,72.895 M80.739,76.389v2.562c0,0.707-0.478,1.299-1.183,1.299H60.107v-8.464
	c0-3.295-0.628-5.383-4.271-7.453c-0.992-0.563-3.465-2.822-3.465-2.822s-2.963-0.431-4.168-0.867
	c-1.204-0.667-2.421-1.327-3.63-1.967c-0.776-0.592-1.408-1.188-1.87-1.69c-1.484-1.611,1.504-3.158,3.701-5.72
	c2.194-2.563,2.604-4.742,2.604-9.867c0-4.788,3.929-10.072,10.196-10.149c6.266,0.078,10.174,5.362,10.174,10.149
	c0,5.125,0.341,7.304,2.535,9.867c2.196,2.562,4.926,4.108,3.44,5.72c-1.486,1.615-4.931,4.204-10.089,4.524v5.124
	c5.158,2.239,11.202,5.128,12.849,6.065C79.634,73.558,80.739,74.628,80.739,76.389"/>
</svg>
