<?xml version="1.0" encoding="utf-8"?>
<!-- Generator: Adobe Illustrator 16.0.0, SVG Export Plug-In . SVG Version: 6.00 Build 0)  -->
<!DOCTYPE svg PUBLIC "-//W3C//DTD SVG 1.1//EN" "http://www.w3.org/Graphics/SVG/1.1/DTD/svg11.dtd">
<svg version="1.1" id="Layer_1" xmlns="http://www.w3.org/2000/svg" xmlns:xlink="http://www.w3.org/1999/xlink" x="0px" y="0px"
	 width="100px" height="100px" viewBox="0 0 100 100" enable-background="new 0 0 100 100" xml:space="preserve">
<path fill="#ffa000" d="M75.195,39.949C70.59,31.974,64.099,17.329,36.428,1c10.82,18.166-6.762,35.856-6.762,35.856
	C15.625,55.008,15.831,60.538,15.831,67.329C15.829,85.326,31.692,96.936,42.188,99c-3.279-3.439-13.87-16.188-3.083-27.612
	c4.187-4.433,10.951-18.318,6.97-23.646c0,0,32.989,22,11.567,50.418c11.218-2.33,20.942-8.542,23.447-22.118
	C82.884,66.31,81.089,50.155,75.195,39.949z"/>
</svg>
