<?xml version="1.0" encoding="utf-8"?>
<!-- Generator: Adobe Illustrator 16.0.0, SVG Export Plug-In . SVG Version: 6.00 Build 0)  -->
<!DOCTYPE svg PUBLIC "-//W3C//DTD SVG 1.1//EN" "http://www.w3.org/Graphics/SVG/1.1/DTD/svg11.dtd">
<svg version="1.1" id="Layer_1" xmlns="http://www.w3.org/2000/svg" xmlns:xlink="http://www.w3.org/1999/xlink" x="0px" y="0px"
	 width="100px" height="100px" viewBox="0 0 100 100" enable-background="new 0 0 100 100" xml:space="preserve">
<g>
	<rect fill="#00bc4e" x="8.435" y="45.051" width="33.613" height="53.25"/>
	<rect fill="#00bc4e" x="56.62" y="45.051" width="33.613" height="53.25"/>
</g>
<g>
	<path fill="#00bc4e" d="M48.132,14.546C39.334,0.972,32.038,1.196,32.038,1.196c-11.812-2.036-16.18,12.358-8.955,18.145
		c3.567,2.858,17.398,1.384,31.167,1.556C52.906,20.88,48.132,14.546,48.132,14.546z M27.785,15.641
		C24.1,12.69,26.329,5.351,32.351,6.389c0,0,3.72-0.114,8.207,6.808c0,0,2.436,3.229,3.121,3.238
		C36.657,16.348,29.604,17.099,27.785,15.641z"/>
	<path fill="#00bc4e" d="M65.892,1.338c0,0-7.296-0.224-16.094,13.349c0,0-4.774,6.335-6.12,6.352c13.77-0.172,27.6,1.303,31.168-1.556
		C82.072,13.696,77.704-0.698,65.892,1.338z M70.145,15.782c-1.818,1.459-8.871,0.708-15.894,0.795
		c0.686-0.01,3.122-3.238,3.122-3.238c4.484-6.922,8.205-6.808,8.205-6.808C71.602,5.493,73.83,12.833,70.145,15.782z"/>
</g>
<g>
	<rect fill="#00bc4e" x="56.62" y="24.192" width="37.811" height="17.829"/>
	<rect fill="#00bc4e" x="4.238" y="24.192" width="37.81" height="17.829"/>
</g>
</svg>
