<?xml version="1.0" encoding="utf-8"?>
<!-- Generator: Adobe Illustrator 16.0.0, SVG Export Plug-In . SVG Version: 6.00 Build 0)  -->
<!DOCTYPE svg PUBLIC "-//W3C//DTD SVG 1.1//EN" "http://www.w3.org/Graphics/SVG/1.1/DTD/svg11.dtd">
<svg version="1.1" id="Layer_1" xmlns="http://www.w3.org/2000/svg" xmlns:xlink="http://www.w3.org/1999/xlink" x="0px" y="0px"
	 width="100px" height="100px" viewBox="0 0 100 100" enable-background="new 0 0 100 100" xml:space="preserve">
<path fill="#04ad92" d="M16.308,62.525v34.712h61.438V62.525L47.026,31.567L16.308,62.525z M47.026,10.55L28.559,29.161v-9.503
	h-9.634v19.215L0.704,57.236l6.95,7.004l8.654-8.72l30.718-30.959l30.719,30.959l8.654,8.72l6.95-7.004L47.026,10.55z"/>
<g>
	<path fill="#04ad92" d="M97.177,28.296h-2.501l1.487-1.488c1.439-1.441-0.79-3.673-2.23-2.232l-3.719,3.721h-4.729l-1.67-3.339l2.973-2.972h5.656
		c2.035,0,2.035-3.155,0-3.155h-2.502l2.345-2.343c1.438-1.438-0.791-3.671-2.23-2.23L87.712,16.6v-2.502
		c0-2.034-3.155-2.034-3.155,0v5.657l-2.973,2.972l-3.338-1.669v-4.729l3.72-3.72c1.438-1.44-0.793-3.67-2.231-2.231l-1.488,1.489
		V9.365c0-2.036-3.155-2.036-3.155,0v2.501l-1.487-1.489c-1.439-1.439-3.67,0.792-2.231,2.231l3.719,3.72v4.729l-3.337,1.671
		l-2.973-2.975v-5.657c0-2.034-3.156-2.034-3.156,0V16.6l-2.343-2.343c-1.439-1.438-3.67,0.792-2.23,2.23l2.343,2.343h-2.502
		c-2.035,0-2.035,3.155,0,3.155h5.657l2.974,2.972l-1.002,2.004l2.337,2.376l1.759-3.515l4.052-2.027l4.051,2.024l2.026,4.052
		l-2.026,4.052l-3.586,1.795l2.324,2.363l2.125-1.063l2.974,2.974v5.657c0,2.034,3.155,2.034,3.155,0v-2.502l2.343,2.343
		c1.439,1.439,3.67-0.792,2.23-2.231l-2.343-2.343h2.502c2.035,0,2.035-3.155,0-3.155h-5.656l-2.975-2.973l1.671-3.337h4.729
		l3.719,3.721c1.438,1.437,3.67-0.792,2.23-2.231l-1.487-1.49h2.501C99.212,31.451,99.212,28.296,97.177,28.296z"/>
</g>
</svg>
