<?xml version="1.0" encoding="utf-8"?>
<!-- Generator: Adobe Illustrator 16.0.0, SVG Export Plug-In . SVG Version: 6.00 Build 0)  -->
<!DOCTYPE svg PUBLIC "-//W3C//DTD SVG 1.1//EN" "http://www.w3.org/Graphics/SVG/1.1/DTD/svg11.dtd">
<svg version="1.1" id="Layer_1" xmlns="http://www.w3.org/2000/svg" xmlns:xlink="http://www.w3.org/1999/xlink" x="0px" y="0px"
	 width="100px" height="100px" viewBox="0 0 100 100" enable-background="new 0 0 100 100" xml:space="preserve">
<path fill="#00838f" d="M71.258,47.225l5.049-3.38c0.861-0.577,1.275-1.847,0.928-2.823L65.764,9.126l-9.352,40.505
	c-0.887,3.566-3.246,6.198-7.015,6.386v3.898v0.618c0.714,0.493,1.546,0.54,2.306,0.03l4.078-2.861l22.895,34.973l10.406,2.074
	l3.402-2.295l1.766-10.259L71.258,47.225z"/>
<path fill="#00838f" d="M58.777,4.504L36.183,1.265C35.156,1.115,33.472,1,32.438,1c-1.038,0-2.722,0.115-3.75,0.265L6.099,4.504
	C5.073,4.649,4.443,5.591,4.69,6.598L15.067,48.17c0.25,1.009,1.306,1.83,2.34,1.83h5.608v41.461L30.086,99h0.385h3.735l0.115-0.109
	v-0.004l3.77-3.713v0.001l1.37-1.35l0.19-0.188l0,0l2.208-2.177V50h5.608c1.035,0,2.089-0.821,2.34-1.83L60.186,6.598
	C60.434,5.591,59.803,4.649,58.777,4.504z M32.438,23.379c-4.036,0-7.303-3.269-7.303-7.303c0-4.034,3.267-7.303,7.303-7.303
	s7.303,3.269,7.303,7.303C39.741,20.11,36.474,23.379,32.438,23.379z"/>
</svg>
