<?xml version="1.0" encoding="utf-8"?>
<!-- Generator: Adobe Illustrator 16.0.0, SVG Export Plug-In . SVG Version: 6.00 Build 0)  -->
<!DOCTYPE svg PUBLIC "-//W3C//DTD SVG 1.1//EN" "http://www.w3.org/Graphics/SVG/1.1/DTD/svg11.dtd">
<svg version="1.1" id="Layer_1" xmlns="http://www.w3.org/2000/svg" xmlns:xlink="http://www.w3.org/1999/xlink" x="0px" y="0px"
	 width="100px" height="100px" viewBox="0 0 100 100" enable-background="new 0 0 100 100" xml:space="preserve">
<path fill="#a4a929" d="M24.455,30.726c-15.642,20.073-9.028,39.129-8.103,47.828L0.774,94.223V100l17.883-17.979
	c10.717-0.144,80.117,24.603,80.117-81.858C58.794,11.759,40.1,10.652,24.455,30.726 M54.145,50.072
	c-9.44,5.076-23.836,14.014-28.467,20.313c-4.634,6.301-8.016,13.145-1.887-1.364c6.137-14.508,23.513-25.105,36.684-32.127
	c10.116-5.398,19.348-10.051,26.188-20.122c6.85-10.07,2.027,1.169,2.027,1.169C79.715,36.351,67.297,43.019,54.145,50.072"/>
</svg>
