<?xml version="1.0" encoding="utf-8"?>
<!-- Generator: Adobe Illustrator 16.0.0, SVG Export Plug-In . SVG Version: 6.00 Build 0)  -->
<!DOCTYPE svg PUBLIC "-//W3C//DTD SVG 1.1//EN" "http://www.w3.org/Graphics/SVG/1.1/DTD/svg11.dtd">
<svg version="1.1" id="Layer_1" xmlns="http://www.w3.org/2000/svg" xmlns:xlink="http://www.w3.org/1999/xlink" x="0px" y="0px"
	 width="100px" height="100px" viewBox="0 0 100 100" enable-background="new 0 0 100 100" xml:space="preserve">
<path fill="#a4a929" d="M92.613,79.288c-2.626-1.494-19.76-11.631-28.562-15.192V53.883c2.547-1.86,4.08-4.726,4.08-9.067V38.09
	c4.855-1.862,8.073-4.038,8.073-4.87c0-1.674-0.988-3.583-2.199-3.583h-4.595L63.446,2.4c0.144-1.32-0.678-1.649-1.825-1.227
	l-9.762,3.08c-1.147,0.422-3.028,0.401-4.175-0.025L37.92,1.452c-1.146-0.421-1.974,0.012-1.832,1.339L30.14,29.637h-4.602
	c-1.212,0-2.2,1.909-2.2,3.583c0,0.832,3.218,3.008,8.073,4.87v6.725c0,4.386,1.534,7.259,4.08,9.111v10.169
	C27.2,67.657,9.556,77.794,6.93,79.288c-3.268,1.857-4.08,3.622-4.08,7.918v9.754c0,1.123,0.918,2.04,2.04,2.04h89.764
	c1.121,0,2.04-0.917,2.04-2.04v-9.754C96.693,82.91,95.881,81.146,92.613,79.288"/>
</svg>
