<?xml version="1.0" encoding="utf-8"?>
<!-- Generator: Adobe Illustrator 16.0.0, SVG Export Plug-In . SVG Version: 6.00 Build 0)  -->
<!DOCTYPE svg PUBLIC "-//W3C//DTD SVG 1.1//EN" "http://www.w3.org/Graphics/SVG/1.1/DTD/svg11.dtd">
<svg version="1.1" id="Layer_1" xmlns="http://www.w3.org/2000/svg" xmlns:xlink="http://www.w3.org/1999/xlink" x="0px" y="0px"
	 width="100px" height="100px" viewBox="0 0 100 100" enable-background="new 0 0 100 100" xml:space="preserve">
<path fill="#00838f" d="M51.064,66.057l31.15-38.209H14.447l30.685,37.99v24.762l-20.766,6.177V99h47.467v-2.225l-20.768-6.177V66.057z
	 M33.143,33.777L45.131,60.46L24.244,33.777H33.143z"/>
<rect fill="#00838f" x="69.486" y="-2.948" transform="matrix(0.8552 0.5183 -0.5183 0.8552 24.6336 -32.4813)" width="1.928" height="61.59"/>
<path fill="#00838f" d="M83.742,18.774c-0.771,2.915-4.548,4.443-8.436,3.421c-3.887-1.028-6.414-4.223-5.645-7.14
	c0.769-2.917,4.547-4.447,8.434-3.421C81.986,12.663,84.513,15.856,83.742,18.774z"/>
</svg>
