<?xml version="1.0" encoding="utf-8"?>
<!-- Generator: Adobe Illustrator 16.0.0, SVG Export Plug-In . SVG Version: 6.00 Build 0)  -->
<!DOCTYPE svg PUBLIC "-//W3C//DTD SVG 1.1//EN" "http://www.w3.org/Graphics/SVG/1.1/DTD/svg11.dtd">
<svg version="1.1" id="Layer_1" xmlns="http://www.w3.org/2000/svg" xmlns:xlink="http://www.w3.org/1999/xlink" x="0px" y="0px"
	 width="100px" height="100px" viewBox="0 0 100 100" enable-background="new 0 0 100 100" xml:space="preserve">
<path fill="#00838f" d="M92.956,83.064C84.3,92.682,72.312,98.526,58.339,98.974C31.138,99.857,8.377,78.638,7.49,51.587
	C6.605,24.544,27.931,1.906,55.13,1.02c1.709-0.057,3.4,0.019,5.073,0.096c1.632,0.074,1.889,0.913,0.817,1.598
	c-12.432,7.977-20.487,22.011-19.97,37.775c0.783,23.854,20.853,42.556,44.836,41.781c2.077-0.068,4.124-0.231,6.105-0.631
	C93.862,81.257,94.12,81.773,92.956,83.064"/>
</svg>
