<?xml version="1.0" encoding="utf-8"?>
<!-- Generator: Adobe Illustrator 16.0.0, SVG Export Plug-In . SVG Version: 6.00 Build 0)  -->
<!DOCTYPE svg PUBLIC "-//W3C//DTD SVG 1.1//EN" "http://www.w3.org/Graphics/SVG/1.1/DTD/svg11.dtd">
<svg version="1.1" id="Layer_1" xmlns="http://www.w3.org/2000/svg" xmlns:xlink="http://www.w3.org/1999/xlink" x="0px" y="0px"
	 width="100px" height="100px" viewBox="0 0 100 100" enable-background="new 0 0 100 100" xml:space="preserve">
<path fill="#04ad92" d="M95.57,46.492h-5.563l3.31-3.311c3.199-3.202-1.759-8.166-4.961-4.963l-8.27,8.274H69.571l-3.714-7.424l6.609-6.608h12.579
	c4.525,0,4.525-7.017,0-7.017h-5.563l5.215-5.21c3.199-3.199-1.76-8.164-4.961-4.961l-5.215,5.21v-5.563
	c0-4.525-7.016-4.525-7.016,0v12.58l-6.609,6.608l-7.424-3.711V19.879l8.271-8.271c3.199-3.202-1.762-8.163-4.961-4.962l-3.31,3.312
	V4.394c0-4.525-7.016-4.525-7.016,0v5.563l-3.31-3.312c-3.199-3.2-8.16,1.761-4.961,4.962l8.271,8.271v10.516l-7.42,3.717
	l-6.612-6.614v-12.58c0-4.525-7.017-4.525-7.017,0v5.563l-5.21-5.21c-3.2-3.199-8.16,1.762-4.961,4.961l5.21,5.21h-5.563
	c-4.525,0-4.525,7.017,0,7.017h12.58l6.612,6.608l-3.713,7.424H19.844l-8.271-8.274c-3.203-3.203-8.16,1.762-4.961,4.963l3.31,3.311
	H4.359c-4.525,0-4.525,7.016,0,7.016h5.563l-3.31,3.313c-3.198,3.195,1.763,8.156,4.961,4.961l8.271-8.274h10.518l3.713,7.424
	l-6.612,6.609h-12.58c-4.525,0-4.525,7.016,0,7.016h5.563l-5.207,5.211c-3.198,3.197,1.763,8.158,4.961,4.961l5.207-5.211v5.563
	c0,4.525,7.017,4.525,7.017,0V72.502l6.612-6.611l7.42,3.714v10.517l-8.271,8.273c-3.199,3.199,1.762,8.16,4.961,4.961l3.31-3.313
	v5.563c0,4.525,7.016,4.525,7.016,0v-5.563l3.31,3.313c3.199,3.199,8.16-1.762,4.961-4.961l-8.271-8.273V69.604l7.421-3.714
	l6.612,6.611v12.579c0,4.525,7.016,4.525,7.016,0v-5.563l5.211,5.211c3.2,3.2,8.161-1.761,4.961-4.961l-5.211-5.211h5.563
	c4.525,0,4.525-7.016,0-7.016H72.467l-6.612-6.612l3.714-7.421h10.518l8.27,8.274c3.196,3.195,8.16-1.762,4.961-4.961l-3.31-3.313
	h5.563C100.096,53.508,100.096,46.492,95.57,46.492 M58.975,59.007l-9.01,4.509l-9.01-4.509L36.45,50l4.504-9.007l9.01-4.508
	l9.01,4.501l4.505,9.01L58.975,59.007z"/>
</svg>
