<?xml version="1.0" encoding="utf-8"?>
<!-- Generator: Adobe Illustrator 16.0.0, SVG Export Plug-In . SVG Version: 6.00 Build 0)  -->
<!DOCTYPE svg PUBLIC "-//W3C//DTD SVG 1.1//EN" "http://www.w3.org/Graphics/SVG/1.1/DTD/svg11.dtd">
<svg version="1.1" id="Layer_1" xmlns="http://www.w3.org/2000/svg" xmlns:xlink="http://www.w3.org/1999/xlink" x="0px" y="0px"
	 width="100px" height="100px" viewBox="0 0 100 100" enable-background="new 0 0 100 100" xml:space="preserve">
<path fill= "#00838f" d="M75.408,22.778h-14.52V8.259h1.816c1.002,0,1.814-0.812,1.814-1.814v-3.63C64.52,1.812,63.707,1,62.705,1H37.296
	c-1.005,0-1.813,0.812-1.813,1.814v3.63c0,1.002,0.808,1.814,1.813,1.814h1.814v14.519H24.592c-5.99,0-10.889,4.898-10.889,10.889
	v50.816c0,5.989,4.899,10.888,10.889,10.888h3.63c0,2.008,1.625,3.629,3.629,3.629c2.004,0,3.63-1.621,3.63-3.629H64.52
	c0,2.008,1.625,3.629,3.629,3.629s3.629-1.621,3.629-3.629h3.631c5.99,0,10.889-4.898,10.889-10.888V33.667
	C86.297,27.676,81.398,22.778,75.408,22.778 M53.629,22.778h-7.258V8.259h7.258V22.778z"/>
</svg>
