<?xml version="1.0" encoding="utf-8"?>
<!-- Generator: Adobe Illustrator 16.0.0, SVG Export Plug-In . SVG Version: 6.00 Build 0)  -->
<!DOCTYPE svg PUBLIC "-//W3C//DTD SVG 1.1//EN" "http://www.w3.org/Graphics/SVG/1.1/DTD/svg11.dtd">
<svg version="1.1" id="Layer_1" xmlns="http://www.w3.org/2000/svg" xmlns:xlink="http://www.w3.org/1999/xlink" x="0px" y="0px"
	 width="100px" height="100px" viewBox="0 0 100 100" enable-background="new 0 0 100 100" xml:space="preserve">
<path fill="#ffa000" d="M49.999,25.471c-13.523,0-24.532,11.006-24.532,24.528s11.008,24.527,24.532,24.527
	c13.525,0,24.533-11.006,24.533-24.527S63.523,25.471,49.999,25.471 M16.52,54.087H1.207C1.096,52.736,1,51.38,1,49.999
	c0-1.382,0.097-2.739,0.208-4.088H16.52c-0.164,1.342-0.272,2.703-0.272,4.088C16.248,51.386,16.356,52.745,16.52,54.087
	 M29.233,76.542L18.4,87.373c-2.085-1.764-4.018-3.696-5.781-5.78l10.832-10.83C25.14,72.913,27.081,74.854,29.233,76.542
	 M23.451,29.236L12.62,18.405c1.763-2.084,3.696-4.016,5.781-5.781l10.833,10.832C27.081,25.144,25.14,27.084,23.451,29.236
	 M83.479,45.911h15.313C98.904,47.26,99,48.617,99,49.999c0,1.381-0.096,2.737-0.207,4.088H83.479
	c0.164-1.342,0.271-2.701,0.271-4.088C83.75,48.613,83.644,47.252,83.479,45.911 M54.088,83.468v15.315
	c-1.35,0.111-2.706,0.209-4.089,0.209c-1.38,0-2.739-0.098-4.088-0.209V83.468c1.341,0.169,2.703,0.279,4.088,0.279
	C51.386,83.747,52.747,83.637,54.088,83.468 M87.381,18.405L76.549,29.236c-1.689-2.152-3.631-4.092-5.783-5.779l10.833-10.832
	C83.682,14.389,85.615,16.321,87.381,18.405 M76.549,70.763l10.832,10.83c-1.766,2.084-3.699,4.017-5.782,5.78L70.766,76.542
	C72.918,74.854,74.859,72.913,76.549,70.763 M54.088,1.215v15.314c-1.341-0.167-2.702-0.275-4.089-0.275
	c-1.385,0-2.747,0.107-4.088,0.275V1.215c1.349-0.112,2.708-0.208,4.088-0.208C51.382,1.007,52.738,1.103,54.088,1.215"/>
</svg>
