<?xml version="1.0" encoding="utf-8"?>
<!-- Generator: Adobe Illustrator 16.0.0, SVG Export Plug-In . SVG Version: 6.00 Build 0)  -->
<!DOCTYPE svg PUBLIC "-//W3C//DTD SVG 1.1//EN" "http://www.w3.org/Graphics/SVG/1.1/DTD/svg11.dtd">
<svg version="1.1" id="Layer_1" xmlns="http://www.w3.org/2000/svg" xmlns:xlink="http://www.w3.org/1999/xlink" x="0px" y="0px"
	 width="100px" height="100px" viewBox="0 0 100 100" enable-background="new 0 0 100 100" xml:space="preserve">
<g>
	<g>
		<path fill="#00838f" d="M73.694,23.664l1.31-10.797L69.6,12.254L68.29,23.05C68.317,22.812,73.721,23.424,73.694,23.664z"/>
		<path fill="#00838f" d="M55.589,32.98L55.589,32.98c0.003,0.001,2.208,1.005,5.334,4.908c1.477,1.729,2.775,3.63,3.837,5.7
			c0.051-0.015,9.905-2.916,18.144,2.678c0.258-1.036,0.41-2.002,0.526-3.038c0.939-8.279-5.189-15.976-13.471-16.915
			C64.189,25.66,58.704,28.435,55.589,32.98z"/>
		<path fill="#00838f" d="M94.154,25.73l-3.535-4.437l-8.276,6.778c1.365,1.319,2.554,2.809,3.535,4.436L94.154,25.73z"/>
		<path fill="#00838f" d="M87.475,41.888c0.239,0.028-0.373,5.431-0.614,5.403l11.274,1.374l0.611-5.403L87.475,41.888z"/>
		<path fill="#00838f" d="M58.975,25.473l-7.156-8.917l-4.439,3.532l7.157,8.916C55.855,27.638,57.347,26.454,58.975,25.473z"/>
	</g>
	<path fill="#00838f" d="M38.432,30.723c-14.526,0-26.344,11.818-26.344,26.344c0,0.884,0.045,1.787,0.133,2.688l0.143,1.439
		l-1.414,0.31c-5.913,1.29-10.203,6.742-10.203,12.963c0,7.198,5.945,13.279,12.981,13.279h57.01
		c11.283,0,20.464-9.339,20.464-20.819c0-11.481-9.181-20.822-20.464-20.822c-2.14,0-4.267,0.34-6.323,1.01l-1.386,0.452
		l-0.602-1.329C58.166,36.813,48.747,30.723,38.432,30.723z"/>
</g>
</svg>
