<?xml version="1.0" encoding="utf-8"?>
<!-- Generator: Adobe Illustrator 16.0.0, SVG Export Plug-In . SVG Version: 6.00 Build 0)  -->
<!DOCTYPE svg PUBLIC "-//W3C//DTD SVG 1.1//EN" "http://www.w3.org/Graphics/SVG/1.1/DTD/svg11.dtd">
<svg version="1.1" id="Layer_1" xmlns="http://www.w3.org/2000/svg" xmlns:xlink="http://www.w3.org/1999/xlink" x="0px" y="0px"
	 width="100px" height="100px" viewBox="0 0 100 100" enable-background="new 0 0 100 100" xml:space="preserve">
<path fill="#04ad92" d="M47.199,52.872c1.283,0.734,2.371,1.646,3.316,2.635L25.098,99h-9.846L43.11,51.324
	C44.502,51.628,45.877,52.115,47.199,52.872 M91.599,77.934c-0.822,1.402-1.713,2.742-2.646,4.037
	c0.416-7.239-3.134-14.436-9.925-18.306c-5.42-3.095-11.671-3.314-17.113-1.281c-0.408-6.762-4.114-13.2-10.5-16.838
	c-6.319-3.614-13.75-3.614-19.843-0.66c-0.989-5.585-4.294-10.742-9.655-13.796c-6.919-3.945-15.195-3.296-21.377,0.896
	c0.711-1.563,1.511-3.103,2.393-4.619C16.346,4.415,45.219-4.176,69.059,6.938l2.239-3.835c1.172-2.005,3.793-2.697,5.825-1.547
	c2.036,1.166,2.736,3.751,1.56,5.765l-2.241,3.835C98.107,25.98,105.014,54.98,91.599,77.934 M65.114,13.523
	c-5.63-2.515-11.628-3.791-17.812-3.791c-10.542,0-20.708,3.746-28.617,10.552l-1.101,0.94l1.392,0.436
	c9.06,2.828,12.594,5.036,17.031,13.337l0.665,1.237l0.753-1.187C49.86,15.448,64.64,15.063,64.785,15.063L65.114,13.523z
	 M72.649,17.812l-1.188,1.053c0.076,0.125,7.121,12.96-3.847,33.396l-0.664,1.24l1.42-0.053c0.703-0.028,1.373-0.04,2.019-0.04
	c7.974,0,11.699,2.082,18.188,7.946l1.076,0.969l0.275-1.408C93.177,44.489,86.39,27.569,72.649,17.812"/>
</svg>
