<?xml version="1.0" encoding="UTF-8" standalone="no"?>
<svg width="100px" height="51px" viewBox="0 0 100 51" version="1.1" xmlns="http://www.w3.org/2000/svg" xmlns:xlink="http://www.w3.org/1999/xlink" xmlns:sketch="http://www.bohemiancoding.com/sketch/ns">
    <!-- Generator: Sketch 3.4.2 (15855) - http://www.bohemiancoding.com/sketch -->
    <title>Full_Battery</title>
    <desc>Created with Sketch.</desc>
    <defs></defs>
    <g id="Page-1" stroke="none" stroke-width="1" fill="none" fill-rule="evenodd" sketch:type="MSPage">
        <g id="Full_Battery" sketch:type="MSLayerGroup" transform="translate(-879.000000, -301.000000)">
            <g id="Page-1" sketch:type="MSShapeGroup">
                <g id="Battery_Shell">
                    <path d="M1940.482,626.77 L1940.482,595.719 C1940.482,592.014 1937.353,589 1933.506,589 C1929.66,589 1926.531,592.014 1926.531,595.719 L1926.531,626.77 C1921.615,629.251 1918.508,634.137 1918.508,639.557 C1918.508,647.522 1925.236,654 1933.506,654 C1941.777,654 1948.505,647.521 1948.505,639.557 C1948.507,634.137 1945.398,629.251 1940.482,626.77 L1940.482,626.77 L1940.482,626.77 Z M1933.508,650.148 C1927.445,650.148 1922.51,645.394 1922.51,639.554 C1922.51,635.259 1925.175,631.418 1929.301,629.769 L1930.533,629.277 L1930.533,595.717 C1930.533,594.138 1931.867,592.851 1933.508,592.851 C1935.15,592.851 1936.485,594.138 1936.485,595.717 L1936.485,629.277 L1937.717,629.769 C1941.842,631.418 1944.507,635.259 1944.507,639.554 C1944.507,645.396 1939.573,650.148 1933.508,650.148 L1933.508,650.148 L1933.508,650.148 Z M8.229,2.629 L8.229,1.229 C8.229,1.073 8.101,0.928 7.944,0.928 L6.235,0.928 C6.078,0.928 5.95,1.074 5.95,1.229 L5.95,2.629 C6.23,2.596 6.8,2.576 7.09,2.576 C7.38,2.576 7.948,2.596 8.229,2.629 L8.229,2.629 L8.229,2.629 Z M7.659,8.948 L7.659,6.883 C7.659,6.727 7.531,6.599 7.374,6.599 L6.804,6.599 C6.647,6.599 6.519,6.727 6.519,6.883 L6.519,8.948 C6.18,9.145 5.95,9.506 5.95,9.925 C5.95,10.344 6.18,10.705 6.519,10.903 L6.519,11.408 C6.519,11.564 6.647,11.703 6.804,11.703 L7.374,11.703 C7.531,11.703 7.659,11.564 7.659,11.408 L7.659,10.903 C7.998,10.706 8.229,10.344 8.229,9.925 C8.229,9.506 7.998,9.145 7.659,8.948 L7.659,8.948 L7.659,8.948 Z M12.907,3.501 C12.796,3.392 12.615,3.392 12.504,3.501 L11.66,4.34 C11.883,4.514 12.098,4.701 12.303,4.904 C12.508,5.108 12.697,5.322 12.87,5.542 L13.714,4.703 C13.825,4.593 13.825,4.412 13.714,4.302 L12.907,3.501 L12.907,3.501 L12.907,3.501 Z M7.089,3.687 C3.632,3.687 0.821,6.486 0.821,9.925 C0.821,13.364 3.633,16.163 7.089,16.163 C10.545,16.163 13.357,13.364 13.357,9.925 C13.357,6.486 10.545,3.687 7.089,3.687 L7.089,3.687 L7.089,3.687 Z M7.089,14.461 C4.575,14.461 2.53,12.426 2.53,9.924 C2.53,7.422 4.575,5.387 7.089,5.387 C9.602,5.387 11.648,7.422 11.648,9.924 C11.648,12.426 9.602,14.461 7.089,14.461 L7.089,14.461 L7.089,14.461 Z" id="Shape"></path>
                    <path d="M968.65,340.471 L979,340.471 L979,312.538 L968.65,312.538 L968.65,301.157 L879,301.157 L879,351.851 L968.65,351.851 L968.65,340.471 L968.65,340.471 L968.65,340.471 Z M965.104,304.804 L965.104,316.185 L975.453,316.185 L975.453,336.825 L965.104,336.825 L965.104,348.206 L882.547,348.206 L882.547,304.804 L965.104,304.804 L965.104,304.804 L965.104,304.804 Z" id="Shape" fill="#78909C"></path>
                </g>
                <path d="M884,346.721937 L884,306 L906,306.048288 L889.366863,346.721937 L884,346.721937 L884,346.721937 L884,346.721937 Z" id="Shape" fill="#4FAF4C"></path>
                <path d="M891,346.721936 L891,305.999999 L913,306.048287 L896.366863,346.721936 L891,346.721936 L891,346.721936 L891,346.721936 Z" id="Shape" fill="#4FAF4C" transform="translate(902.000000, 326.360968) scale(-1, -1) translate(-902.000000, -326.360968) "></path>
                <path d="M908,346.721937 L908,306 L930,306.048288 L913.366863,346.721937 L908,346.721937 L908,346.721937 L908,346.721937 Z" id="Shape" fill="#4FAF4C"></path>
                <path d="M915,346.721936 L915,305.999999 L937,306.048287 L920.366863,346.721936 L915,346.721936 L915,346.721936 L915,346.721936 Z" id="Shape" fill="#4FAF4C" transform="translate(926.000000, 326.360968) scale(-1, -1) translate(-926.000000, -326.360968) "></path>
                <path d="M935,346.721937 L935,306 L957,306.048288 L940.366863,346.721937 L935,346.721937 L935,346.721937 L935,346.721937 Z" id="Shape" fill="#4FAF4C"></path>
                <path d="M942,346.721936 L942,305.999999 L964,306.048287 L947.366863,346.721936 L942,346.721936 L942,346.721936 L942,346.721936 Z" id="Shape" fill="#4FAF4C" transform="translate(953.000000, 326.360968) scale(-1, -1) translate(-953.000000, -326.360968) "></path>
            </g>
        </g>
    </g>
</svg>