<svg width="124" height="124" viewBox="0 0 124 124" xmlns="http://www.w3.org/2000/svg" xmlns:sketch="http://www.bohemiancoding.com/sketch/ns"><title>icon_identify_active</title><desc>Created with Sketch.</desc><path d="M29.099 47.177c0 9.589 2.875 18.49 7.781 25.932h-3.172v6.922c-3.047-1-6.526-.323-8.948 2.099l-22.188 22.182c-3.432 3.427-3.432 8.984 0 12.417l4.135 4.141c3.432 3.427 8.995 3.427 12.422 0l22.188-22.182c.964-.964 1.625-2.099 2.047-3.307h1.313v-13.24c8.365 7.568 19.422 12.214 31.594 12.214 26.057 0 47.177-21.12 47.177-47.177s-21.12-47.177-47.177-47.177-47.172 21.12-47.172 47.177zm8.724 0c0-21.24 17.208-38.453 38.448-38.453 21.24 0 38.448 17.214 38.448 38.453 0 21.24-17.214 38.453-38.448 38.453-21.24 0-38.448-17.214-38.448-38.453zm71.833 3.24c-2.677-7.776-13.109-22.469-33.391-22.469-20.276 0-30.708 14.698-33.391 22.469-.865 2.51.469 5.245 2.974 6.109 2.505.854 5.245-.469 6.109-2.974.016-.036.333-.901 1.005-2.177 1.948 11.146 11.609 19.641 23.312 19.641 11.682 0 21.344-8.469 23.307-19.589.609 1.172.927 1.995.969 2.13.693 1.984 2.557 3.234 4.552 3.234.521 0 1.052-.089 1.568-.266 2.521-.865 3.844-3.599 2.974-6.109h.01zm-33.37 16.594c-10.813 0-18.74-6.76-19.542-21.021 2.328-2.594 5.615-5.245 10.146-6.865-1.87 2.172-3.036 4.969-3.036 8.052 0 6.854 5.562 12.417 12.417 12.417 6.854 0 12.417-5.563 12.417-12.417 0-3.094-1.172-5.891-3.042-8.063 4.677 1.661 8.031 4.417 10.37 7.094-.859 14.927-8.938 20.802-19.724 20.802h-.005z" sketch:type="MSShapeGroup" fill="#7E939E"/></svg>