<svg class="icon" width="200" height="200" viewBox="0 0 1024 1024" xmlns="http://www.w3.org/2000/svg"><path d="M788.843 146.597a485.069 485.069 0 0 1 86.347 78.142 510.614 510.614 0 0 1 64.763 94.314 465.39 465.39 0 0 1 41.014 107.25 475.088 475.088 0 0 1 14.072 114.793q0 100.246-38.319 188.098T853.097 882.253Q787.76 947.47 699.79 985.735T511.443 1024q-99.305 0-187.265-38.265T170.362 882.264q-65.846-65.218-103.623-153.06T28.96 541.108a468.702 468.702 0 0 1 13.487-112.099 497.495 497.495 0 0 1 38.32-104.554 461.006 461.006 0 0 1 61.526-92.7 524.232 524.232 0 0 1 82.039-77.613c15.825-11.495 32.842-15.306 51.265-12.99 11.907 1.538 24.193 12.481 25.254 25.72 1.786 22.169-13.964 39.726-31.727 53.257q-79.96 58.398-122.49 143.36t-42.508 182.598q0 83.685 31.726 157.865t86.943 129.343Q278 888.499 352.257 920.788t158.038 32.333q83.771 0 158.038-32.333t129.462-87.494Q853 778.088 885.365 703.95t32.29-157.865a400.67 400.67 0 0 0-45.67-187.037q-45.69-88.133-128.183-145.2c-18.618-12.675-32.279-30.655-30.027-52.845 1.602-15.75 11.008-23.911 23.25-25.72 18.781-2.781 35.981.542 51.807 11.313z" fill="#789098"/><path d="M501.246 0a42.93 42.93 0 0 1 42.962 42.93v429.355a42.935 42.935 0 0 1-85.87 0V42.93A42.93 42.93 0 0 1 501.246 0z" fill="#789098"/></svg>