<?xml version="1.0" encoding="UTF-8" standalone="no"?>
<svg width="51px" height="51px" viewBox="0 0 51 51" version="1.1" xmlns="http://www.w3.org/2000/svg" xmlns:xlink="http://www.w3.org/1999/xlink">
    <!-- Generator: sketchtool 46 (44423) - http://www.bohemiancoding.com/sketch -->
    <title>F0F9A65B-F69F-45C8-9176-4CF1038C6236</title>
    <desc>Created with sketchtool.</desc>
    <defs></defs>
    <g id="Page-1" stroke="none" stroke-width="1" fill="none" fill-rule="evenodd">
        <g id="Fan_Speed_Running_Idle" transform="translate(-1638.000000, -1883.000000)">
            <g id="Group-7" transform="translate(1638.000000, 1883.000000)">
                <rect id="Rectangle-37" stroke="#92A7B0" stroke-width="2" opacity="0.5" x="1" y="1" width="49" height="49"></rect>
                <path d="M41.6455885,16.8593181 C39.1874754,16.4449725 35.8907422,17.2152031 31.8320975,20.7254063 C30.6030409,19.4230552 28.9439007,18.5939372 27.169698,18.360521 C27.4868739,16.0088641 29.4502617,13.9755407 30.8340277,12.2037969 C31.8264952,10.9325964 34.1811814,7.79790726 33.4076342,6.46312538 C32.4987702,4.89620752 18.4490848,2.24285914 16.9532729,10.7068612 C16.5296535,13.1063109 17.3178528,16.325064 20.9128003,20.2888712 C19.5790239,21.4892361 18.7296303,23.109494 18.4913175,24.8415527 C16.0819011,24.5313269 14.0000034,22.6144982 12.1852919,21.2635009 C10.8834055,20.2948453 7.67329242,17.9948215 6.30633328,18.7509703 C4.70106127,19.6381224 1.98351891,33.3567613 10.6528497,34.8161456 C13.1101009,35.2313447 16.406834,34.4619675 20.4654788,30.9504841 C21.6953973,32.2541154 23.3541065,33.0840869 25.1278782,33.3157961 C24.8102714,35.6678798 22.8481765,37.7012032 21.4644105,39.4733737 C20.4728049,40.7437207 18.1176877,43.8779832 18.890373,45.2131918 C19.7992371,46.7809631 33.8493534,49.4338847 35.3443033,40.9703094 C35.7683537,38.5708597 34.9801544,35.3512532 31.3856379,31.3882994 C32.7189833,30.1875078 33.567946,28.5663964 33.8066898,26.8343377 C36.2152442,27.145417 38.2975729,29.0613923 40.1127154,30.4123895 C41.4133089,31.3814719 44.6251458,33.6810689 45.991674,32.9253468 C47.596946,32.0381948 50.3140574,18.3195559 41.6455885,16.8593181 Z M23.2118945,27.03703 C22.5335863,25.4547502 23.2985146,23.6335069 24.9214553,22.9708098 C26.5431033,22.3081128 28.4082354,23.0548738 29.0861127,24.6397139 C29.7644209,26.2232739 28.9994927,28.0436637 27.3774138,28.7072142 C25.754904,29.368631 23.8906337,28.6218701 23.2118945,27.03703 Z" id="Shape" fill="#92A7B0" fill-rule="nonzero"></path>
            </g>
        </g>
    </g>
</svg>