<svg xmlns="http://www.w3.org/2000/svg" width="125" height="125" viewBox="0 0 125 125"><path fill="#CED8E1" d="M74.314 122.346l-9.73-27.06h-37.257l-9.531 27.06h-16.796l36.458-97.842h17.329l36.458 97.842h-16.931zm-13.929-40.79l-9.132-26.526c-.666-1.776-1.589-4.576-2.766-8.397-1.177-3.821-1.989-6.62-2.432-8.398-1.2 5.465-2.956 11.441-5.266 17.929l-8.798 25.393h28.394z"/><g fill="#CED8E1"><path d="M70.421 63.108c0 .965.783 1.747 1.749 1.747h50.083c.967 0 1.747-.782 1.747-1.747v-39.444h-53.579v39.444zm40.103-36.204h10.261v10.263h-10.261v-10.263zm0 12.045h10.261v10.262h-10.261v-10.262zm0 12.044h10.261v10.263h-10.261v-10.263zm-12.13-24.089h10.263v10.263h-10.263v-10.263zm0 12.045h10.263v10.262h-10.263v-10.262zm0 12.044h10.263v10.263h-10.263v-10.263zm-12.132-24.089h10.261v10.263h-10.261v-10.263zm0 12.045h10.261v10.262h-10.261v-10.262zm0 12.044h10.261v10.263h-10.261v-10.263zm-12.131-24.089h10.263v10.263h-10.263v-10.263zm0 12.045h10.263v10.262h-10.263v-10.262zm0 12.044h10.263v10.263h-10.263v-10.263zM122.253 11.277h-10.407v-6.881c0-.961-.781-1.741-1.744-1.741h-.042c-.96 0-1.741.78-1.741 1.741v6.882h-21.425v-6.882c0-.961-.783-1.741-1.744-1.741h-.042c-.961 0-1.743.78-1.743 1.741v6.882h-11.195c-.966 0-1.749.782-1.749 1.747v7.183h53.579v-7.183c0-.965-.78-1.748-1.747-1.748zm-37.114 7.958c-1.968 0-3.564-1.596-3.564-3.565 0-1.319.726-2.458 1.79-3.074v2.143c0 .962.782 1.742 1.743 1.742h.042c.961 0 1.744-.78 1.744-1.742v-2.153c1.076.612 1.81 1.758 1.81 3.085-.001 1.969-1.598 3.564-3.565 3.564zm24.737 0c-1.969 0-3.565-1.596-3.565-3.565 0-1.407.824-2.612 2.008-3.19v2.259c0 .962.781 1.742 1.741 1.742h.042c.963 0 1.744-.78 1.744-1.742v-2.036c.961.639 1.595 1.729 1.595 2.968-.001 1.969-1.597 3.564-3.565 3.564z"/></g></svg>