<?xml version="1.0" encoding="UTF-8" standalone="no"?>
<svg width="51px" height="51px" viewBox="0 0 51 51" version="1.1" xmlns="http://www.w3.org/2000/svg" xmlns:xlink="http://www.w3.org/1999/xlink">
    <!-- Generator: sketchtool 46 (44423) - http://www.bohemiancoding.com/sketch -->
    <title>ED709728-B741-4D65-A3A4-DC376DF07227</title>
    <desc>Created with sketchtool.</desc>
    <defs></defs>
    <g id="Page-1" stroke="none" stroke-width="1" fill="none" fill-rule="evenodd">
        <g id="Fan_Speed_Running_Idle" transform="translate(-1638.000000, -1801.000000)">
            <g id="Group-7" transform="translate(1638.000000, 1801.000000)">
                <rect id="Rectangle-37" stroke="#92A7B0" stroke-width="2" opacity="0.5" x="1" y="1" width="49" height="49"></rect>
                <path d="M42.921854,24.1910527 C40.9822229,23.8641036 38.3808591,24.4718719 35.1782914,27.2416792 C34.2084758,26.2140288 32.8992927,25.559794 31.499317,25.3756116 C31.749592,23.5199822 33.2988486,21.9155412 34.3907412,20.5175057 C35.1738707,19.5144354 37.0318905,17.0409363 36.4215052,15.9876957 C35.7043449,14.7512828 24.6181148,12.6575967 23.4378098,19.3363139 C23.1035431,21.2296553 23.72549,23.769487 26.5621667,26.897221 C25.5097195,27.8443968 24.8394858,29.1228989 24.6514395,30.48962 C22.7502337,30.2448291 21.107464,28.7323109 19.6755238,27.6662752 C18.6482401,26.901935 16.115226,25.0870479 15.0365952,25.6837047 C13.7699181,26.3837326 11.6255782,37.2087428 18.4663147,38.3603038 C20.4052658,38.6879263 23.0066295,38.0808314 26.2091973,35.310014 C27.179693,36.3386745 28.488536,36.9935827 29.8881717,37.1764183 C29.6375567,39.0323844 28.0893202,40.6368254 26.9974275,42.0351976 C26.2149781,43.0375944 24.3566183,45.5107569 24.9663235,46.5643342 C25.6834838,47.8014205 36.7700539,49.8947698 37.9496788,43.2163894 C38.2842856,41.323048 37.6623387,38.7825428 34.8260021,35.6554823 C35.8781092,34.7079698 36.5480029,33.4287943 36.7363892,32.0620732 C38.6369149,32.3075375 40.2800247,33.8193822 41.7123049,34.8854179 C42.7385684,35.6500948 45.2729428,37.4646452 46.3512335,36.8683252 C47.6179106,36.1682973 49.7619104,25.3432871 42.921854,24.1910527 Z M28.3763203,32.2220122 C27.8410855,30.9734776 28.4446699,29.5363834 29.7252889,29.0134669 C31.0048878,28.4905505 32.4766136,29.0797995 33.0115084,30.3303544 C33.5467432,31.5798991 32.9431588,33.0163199 31.6632199,33.5399098 C30.3829409,34.0618161 28.9118952,33.472567 28.3763203,32.2220122 Z" id="Shape" fill="#92A7B0" fill-rule="nonzero"></path>
            </g>
        </g>
    </g>
</svg>