<svg xmlns="http://www.w3.org/2000/svg" width="59" height="59" viewBox="0 0 59 59">
    <path fill="#FFF" fill-rule="nonzero" d="M55.043 14.752C46.898.645 28.858-4.188 14.753 3.957.644 12.101-4.19 30.14 3.956 44.247c8.144 14.107 26.183 18.942 40.29 10.796S63.19 28.86 55.042 14.753zM41.657 50.264c-11.246 6.495-25.63 2.64-32.124-8.608-6.495-11.246-2.64-25.63 8.607-32.122 11.247-6.495 25.63-2.641 32.124 8.607 6.494 11.248 2.64 25.629-8.607 32.123zM40.4 28.5l-15.527-9.01c-1.415-.822-2.557-.165-2.549 1.463l.08 17.885c.007 1.628 1.162 2.29 2.582 1.475l15.408-8.851c1.418-.814 1.421-2.14.006-2.962z"/>
</svg>
