<svg xmlns="http://www.w3.org/2000/svg" width="30" height="22" viewBox="0 0 30 22"><g fill="#90A4AE"><path d="M.78 6.535l1.901 1.902c3.31-3.249 7.679-5.04 12.319-5.04 4.637 0 9.004 1.788 12.319 5.039l1.902-1.903c-3.801-3.744-8.852-5.816-14.221-5.816-5.363 0-10.406 2.064-14.22 5.818zM4.802 10.56l1.896 1.894c2.238-2.176 5.179-3.373 8.302-3.373 3.122 0 6.063 1.196 8.301 3.372l1.895-1.894c-2.745-2.683-6.358-4.158-10.196-4.158-3.836 0-7.45 1.475-10.198 4.159zM8.82 14.576l1.897 1.896c1.165-1.104 2.679-1.707 4.282-1.707 1.604 0 3.12.604 4.284 1.705l1.895-1.894c-1.67-1.609-3.857-2.493-6.178-2.493-2.319.001-4.506.886-6.18 2.493zM15 17.283c-.973 0-1.888.379-2.574 1.066-.14.141-.14.369 0 .51l2.319 2.318c.066.066.158.105.255.105.095 0 .187-.039.254-.105l2.319-2.318c.141-.141.141-.369 0-.51-.688-.687-1.602-1.066-2.573-1.066z"/></g></svg>