<svg xmlns="http://www.w3.org/2000/svg" width="125" height="125" viewBox="0 0 125 125"><g fill="#DD2C00"><path d="M62.502 5.968c31.196 0 56.578 25.36 56.578 56.532 0 31.17-25.382 56.531-56.578 56.531-31.2 0-56.582-25.361-56.582-56.531 0-31.172 25.382-56.532 56.582-56.532m0-4.919c-33.968 0-61.501 27.512-61.501 61.451 0 33.937 27.533 61.451 61.501 61.451 33.964 0 61.497-27.515 61.497-61.451 0-33.939-27.533-61.451-61.497-61.451z"/><path fill-rule="evenodd" clip-rule="evenodd" d="M32.976 57.583h59.052v9.84h-59.052v-9.84z"/></g></svg>