<svg xmlns="http://www.w3.org/2000/svg" width="125px" height="125px" viewBox="0 0 125 125">
<path fill="#90A4AE" d="M108.822,21.324c-3.321-0.572-7.775,0.49-13.262,5.349c-1.66-1.803-3.899-2.949-6.299-3.272
	c0.434-3.255,3.078-6.067,4.947-8.521c1.346-1.759,4.521-6.097,3.479-7.942C96.46,4.77,77.479,1.099,75.456,12.811
	c-0.569,3.32,0.493,7.775,5.351,13.259c-1.802,1.662-2.949,3.903-3.271,6.303c-3.257-0.43-6.065-3.083-8.521-4.951
	c-1.761-1.342-6.101-4.525-7.941-3.479c-2.17,1.227-5.84,20.21,5.871,22.233c3.322,0.572,7.771-0.493,13.263-5.349
	c1.663,1.8,3.901,2.95,6.301,3.272c-0.431,3.255-3.084,6.067-4.95,8.519c-1.342,1.762-4.521,6.099-3.479,7.943
	c1.229,2.171,20.213,5.839,22.23-5.874c0.57-3.318-0.488-7.774-5.353-13.259c1.806-1.662,2.952-3.9,3.271-6.3
	c3.256,0.43,6.066,3.083,8.521,4.951c1.76,1.342,6.1,4.522,7.939,3.479C116.865,42.33,120.54,23.345,108.822,21.324L108.822,21.324z
	 M89.543,37.719c-2.188,0.917-4.709-0.118-5.626-2.31c-0.917-2.19,0.116-4.709,2.308-5.625c2.191-0.918,4.713,0.113,5.627,2.306
	C92.77,34.28,91.736,36.804,89.543,37.719z"/>
<path fill="#90A4AE" d="M44.777,75.972V57.134H26.391v18.837c-8.701,3.566-14.825,12.034-14.825,21.913
	c0,13.103,10.753,23.724,24.02,23.724c13.261,0,24.016-10.621,24.016-23.724C59.599,88.006,53.477,79.538,44.777,75.972z"/>
<path fill="#90A4AE" d="M35.583,125c-15.281,0-27.712-12.276-27.712-27.371c0-10.269,5.743-19.525,14.825-24.229V14.563
	c0-7.02,5.781-12.729,12.887-12.729c7.103,0,12.886,5.709,12.886,12.729V73.4c9.085,4.703,14.827,13.96,14.827,24.229
	C63.296,112.724,50.863,125,35.583,125z M35.583,9.131c-3.032,0-5.5,2.44-5.5,5.433v63.588l-2.278,0.934
	c-7.618,3.124-12.544,10.402-12.544,18.544c0,11.065,9.118,20.07,20.324,20.07c11.204,0,20.321-9.005,20.321-20.07
	c0-8.142-4.925-15.42-12.543-18.544l-2.279-0.934V14.563C41.08,11.568,38.614,9.131,35.583,9.131z"/>
</svg>
