<svg xmlns="http://www.w3.org/2000/svg" width="29" height="62" viewBox="0 0 29 62"><path fill="#1E88E5" d="M18.979 37.116v-9.177h-8.957v9.177c-4.239 1.738-7.222 5.862-7.222 10.675 0 6.383 5.238 11.557 11.7 11.557s11.7-5.174 11.7-11.557c0-4.813-2.982-8.937-7.221-10.675z"/><path fill="#fff" d="M14.5 61c-7.444 0-13.5-5.981-13.5-13.334 0-5.002 2.798-9.511 7.222-11.803v-28.662c0-3.42 2.816-6.201 6.278-6.201s6.278 2.781 6.278 6.201v28.662c4.425 2.292 7.222 6.801 7.222 11.803 0 7.353-6.056 13.334-13.5 13.334zm0-56.445c-1.477 0-2.678 1.188-2.678 2.646v30.977l-1.11.455c-3.712 1.522-6.112 5.067-6.112 9.033 0 5.391 4.442 9.777 9.9 9.777 5.459 0 9.9-4.387 9.9-9.777 0-3.966-2.399-7.511-6.111-9.033l-1.111-.455v-30.977c0-1.459-1.201-2.646-2.678-2.646z"/></svg>