<svg xmlns="http://www.w3.org/2000/svg" width="125px" height="125px" viewBox="0 0 125 125">
<path fill="#FFFFFF" d="M62.5,1C28.534,1,1,28.535,1,62.5C1,96.466,28.534,124,62.5,124S124,96.466,124,62.5
	C124,28.535,96.466,1,62.5,1z M62.5,113.824c-10.996,0-19.91-8.914-19.91-19.91s8.914-19.91,19.91-19.91s19.91,8.914,19.91,19.91
	S73.496,113.824,62.5,113.824z M62.5,50.996c-10.996,0-19.91-8.913-19.91-19.91c0-10.996,8.914-19.91,19.91-19.91
	s19.91,8.914,19.91,19.91C82.41,42.083,73.496,50.996,62.5,50.996z"/>
</svg>
