<svg t="1585018851932" class="icon" viewBox="0 0 1024 1024" version="1.1"
    xmlns="http://www.w3.org/2000/svg" p-id="620" width="32" height="32">
    <path
        d="M952.889 170.667H71.11c-22.755 0-42.667-19.911-42.667-42.667s19.912-42.667 42.667-42.667H952.89c22.755 0 42.667 19.911 42.667 42.667s-19.912 42.667-42.667 42.667z m-2.845 256H68.267C45.51 426.667 25.6 406.756 25.6 384s19.911-42.667 42.667-42.667h881.777c22.756 0 42.667 19.911 42.667 42.667s-19.911 42.667-42.667 42.667z m0 256H68.267C45.51 682.667 25.6 662.756 25.6 640s19.911-42.667 42.667-42.667h881.777c22.756 0 42.667 19.911 42.667 42.667s-19.911 42.667-42.667 42.667z m0 256H68.267C45.51 938.667 25.6 918.756 25.6 896s19.911-42.667 42.667-42.667h881.777c22.756 0 42.667 19.911 42.667 42.667s-19.911 42.667-42.667 42.667z"
        fill="#ffffff" p-id="621"></path>
</svg>