<svg xmlns="http://www.w3.org/2000/svg" width="125px" height="125px" viewBox="0 0 125 125">
<g>
	<path fill="#FFFFFF" d="M11.786,125c0,0,3.818-12.119,7.304-19.921s10.956-18.26,10.956-18.26l-6.474,4.481
		c0,0-2.988-14.276,2.988-25.896s17.762-18.924,26.726-24.07c8.964-5.146,24.237-10.126,32.205-14.275
		C93.46,22.908,104.084,14.276,108.067,0c0,0-1.162,32.038-5.146,48.639c-3.984,16.6-14.276,35.856-28.221,43.658
		c-13.944,7.803-34.196,13.28-47.643,5.811c0,0-3.984,9.13-5.478,14.11C20.086,117.197,18.758,125,18.758,125H11.786z"/>
	<g>
		<path fill="#FFFFFF" d="M20.081,93.337c-5.778-8.333-9.164-18.45-9.164-29.357c0-28.489,23.095-51.584,51.583-51.584
			c9.906,0,19.159,2.793,27.017,7.634c1.604-1.339,5.062-4.279,7.248-6.531C86.997,6.856,75.202,2.974,62.5,2.974
			c-33.692,0-61.006,27.313-61.006,61.006c0,14.638,5.156,28.07,13.75,38.584C16.674,99.784,18.662,95.951,20.081,93.337z"/>
		<path fill="#FFFFFF" d="M109.818,25.472c-0.362,4.722-0.812,10.402-1.234,15.31c3.518,6.974,5.499,14.854,5.499,23.198
			c0,28.488-23.095,51.583-51.583,51.583c-12.388,0-23.754-4.367-32.647-11.645c-1.335,2.42-2.826,5.487-3.985,8.848
			c10.201,7.672,22.885,12.22,36.632,12.22c33.692,0,61.006-27.313,61.006-61.006C123.506,49.377,118.375,35.974,109.818,25.472z"/>
	</g>
</g>
</svg>