<svg xmlns="http://www.w3.org/2000/svg" width="56" height="29" viewBox="0 0 56 29"><path fill="#fff" d="M54.642 14.002c-.386-.533-9.66-13.001-26.641-13.001-16.981 0-26.256 12.469-26.643 13.001l-.363.498.364.499c.386.531 9.66 13 26.642 13 16.98 0 26.255-12.469 26.641-13l.363-.499-.363-.498zm-26.641 12.309c-14.226 0-22.979-9.504-24.894-11.811 1.914-2.307 10.668-11.812 24.894-11.812 14.224 0 22.978 9.504 24.892 11.812-1.914 2.307-10.668 11.811-24.892 11.811zm0-18.56c-3.696 0-6.701 3.028-6.701 6.749 0 3.722 3.005 6.75 6.701 6.75 3.693 0 6.7-3.028 6.7-6.75 0-3.721-3.007-6.749-6.7-6.749zm0 11.811c-2.772 0-5.026-2.271-5.026-5.062 0-2.792 2.254-5.062 5.026-5.062 2.771 0 5.025 2.27 5.025 5.062 0 2.792-2.255 5.062-5.025 5.062z"/></svg>