<svg xmlns="http://www.w3.org/2000/svg" width="80" height="140" viewBox="0 0 80 140"><path fill-rule="evenodd" clip-rule="evenodd" fill="#7E939E" d="M40 110.098c21.297 0 38.897-16.342 38.897-36.5 0-26.836-28.844-41.583-38.897-72.602-10.054 31.019-38.896 45.766-38.896 72.602 0 20.158 17.594 36.5 38.896 36.5zm-11.991-68.308c3.94-5.028 8.027-9.09 11.99-16.366-1.032 6.601-7.351 16.731-7.351 16.731-3.544 8.235-11.619 16.317-11.619 31.442 0 13.01 10.197 23.801 23.5 25.842-1.479.225-2.983.373-4.53.373-15.453 0-28.029-11.762-28.029-26.215.001-11.324 7.08-20.361 16.039-31.807zm33.051 81.165c-4.474 0-8.1 3.593-8.1 8.023 0 4.432 3.626 8.025 8.1 8.025 4.473 0 8.1-3.594 8.1-8.025-.001-4.43-3.628-8.023-8.1-8.023zm-22.681 0c-4.473 0-8.101 3.593-8.101 8.023 0 4.432 3.627 8.025 8.101 8.025s8.1-3.594 8.1-8.025c0-4.43-3.626-8.023-8.1-8.023zm-22.679 0c-4.474 0-8.1 3.593-8.1 8.023 0 4.432 3.626 8.025 8.1 8.025 4.472 0 8.099-3.594 8.099-8.025 0-4.43-3.627-8.023-8.099-8.023z"/></svg>