<svg xmlns="http://www.w3.org/2000/svg" width="125" height="125" viewBox="0 0 125 125"><path fill="#90A4AE" d="M89.177 43.14l-16.72 16.629c.193.782.318 1.6.318 2.435 0 5.618-4.576 10.204-10.229 10.204-3.828 0-7.124-2.604-8.886-5.149h-14.135c-1.409 0-2.558-1.267-2.558-2.655v-4.852c0-1.399 1.148-2.663 2.558-2.663h14.136c1.762-2.546 5.058-5.146 8.886-5.146 1.009 0 1.968.247 2.891.52l16.567-16.468c.996-.988 2.622-.988 3.617 0l3.555 3.542c.995.991.995 2.614 0 3.603m33.688 29.209c.594-5.09 1.011-6.789 1.011-10.264 0-33.664-27.538-61.085-61.389-61.085-33.852 0-61.363 27.35-61.363 61.019 0 33.647 25.612 61.008 61.423 61.008v-.014c10.229-.028 23.065-3.265 33.39-9.973l.292-.197 7.552 10.407c.828 1.137 1.85.954 2.267-.375l11.278-32.756c.422-1.337-.396-2.438-1.803-2.473l-34.977.008c-1.407-.031-1.881.889-1.063 2.017l7.745 10.78c-7.646 4.887-14.452 7.242-24.681 7.278v.042c-25.579-.008-46.085-20.503-46.075-45.787 0-25.281 20.601-45.779 46.035-45.779 25.424 0 46.031 20.592 46.031 45.878 0 3.497-.469 5.174-1.229 10.264h15.556z"/></svg>