<svg xmlns="http://www.w3.org/2000/svg" width="53.6" height="53.6" viewBox="0 0 53.6 53.6">
  <path id="Icon_awesome-user-circle" data-name="Icon awesome-user-circle" d="M26.8.563a26.789,26.789,0,1,1-.006,0Zm0,10.374a9.509,9.509,0,1,1-9.511,9.51,9.509,9.509,0,0,1,9.511-9.51Zm0,37.171a20.706,20.706,0,0,1-15.832-7.37,12.048,12.048,0,0,1,10.64-6.462,2.644,2.644,0,0,1,.767.119,14.307,14.307,0,0,0,4.419.746,14.253,14.253,0,0,0,4.419-.746,2.64,2.64,0,0,1,.767-.119,12.048,12.048,0,0,1,10.64,6.462A20.706,20.706,0,0,1,26.8,48.108Z" transform="translate(0 -0.563)"/>
</svg>
