<?xml version="1.0" encoding="UTF-8" standalone="no"?>
<svg width="51px" height="51px" viewBox="0 0 51 51" version="1.1" xmlns="http://www.w3.org/2000/svg" xmlns:xlink="http://www.w3.org/1999/xlink">
    <!-- Generator: sketchtool 46 (44423) - http://www.bohemiancoding.com/sketch -->
    <title>2D211331-F423-4991-829A-956D664410BA</title>
    <desc>Created with sketchtool.</desc>
    <defs></defs>
    <g id="Page-1" stroke="none" stroke-width="1" fill="none" fill-rule="evenodd">
        <g id="Fan_Speed_Running_Idle" transform="translate(-1638.000000, -1721.000000)">
            <g id="Group-7" transform="translate(1638.000000, 1721.000000)">
                <rect id="Rectangle-37" stroke="#92A7AF" stroke-width="2" opacity="0.5" x="1" y="1" width="49" height="49"></rect>
                <path d="M44.743974,33.2308485 C43.5445777,33.0286753 41.9359906,33.4044968 39.955641,35.1172432 C39.3559429,34.4817822 38.5463925,34.0772276 37.6806992,33.963336 C37.83546,32.8158833 38.793463,31.8237563 39.4686491,30.9592628 C39.9529075,30.3390013 41.1018382,28.8094808 40.7243985,28.1581957 C40.2809331,27.3936437 33.4256181,26.0989856 32.6957611,30.2288575 C32.4890629,31.3996298 32.8736519,32.9701679 34.6277479,34.904243 C33.9769535,35.4899415 33.5625057,36.28052 33.4462248,37.1256498 C32.2705894,36.9742802 31.2547614,36.0389948 30.3693024,35.3797977 C29.7340682,34.907158 28.1677459,33.7848989 27.5007604,34.1538494 C26.7174941,34.5867208 25.3915136,41.280507 29.6215722,41.9925898 C30.8205479,42.1951794 32.4291351,41.8197744 34.4094847,40.1064033 C35.0096034,40.7424889 35.8189435,41.14746 36.6844265,41.2605187 C36.5294554,42.4081796 35.5720832,43.4003066 34.8968971,44.2650083 C34.4130593,44.8848535 33.2639183,46.4141657 33.6409375,47.065659 C34.0844029,47.8306275 40.9399281,49.1250773 41.6693646,44.9954137 C41.8762731,43.8246413 41.4916841,42.2536868 39.7377983,40.3200281 C40.3883825,39.7341214 40.80262,38.9431266 40.9191111,38.0979967 C42.094326,38.2497828 43.1103643,39.1846517 43.9960335,39.8438488 C44.6306369,40.3166967 46.1978004,41.4387476 46.8645755,41.0700054 C47.6478419,40.637134 48.9736121,33.9433477 44.743974,33.2308485 Z M35.7495535,38.1968971 C35.418584,37.4248495 35.7918183,36.5362035 36.5837058,36.2128513 C37.3749625,35.8894991 38.2850233,36.2538689 38.6157825,37.0271658 C38.9467519,37.7998381 38.5735177,38.6880677 37.7820507,39.0118363 C36.9903735,39.3345639 36.0807332,38.970194 35.7495535,38.1968971 Z" id="Shape" fill="#92A7B0" fill-rule="nonzero"></path>
            </g>
        </g>
    </g>
</svg>