<?xml version="1.0" encoding="utf-8"?>
<!-- Generator: Adobe Illustrator 22.0.1, SVG Export Plug-In . SVG Version: 6.00 Build 0)  -->
<svg version="1.1" id="圖層_1" xmlns="http://www.w3.org/2000/svg" xmlns:xlink="http://www.w3.org/1999/xlink" x="0px" y="0px"
	 viewBox="0 0 125 125" style="enable-background:new 0 0 125 125;" xml:space="preserve">
<style type="text/css">
	.st0{fill:#FFFFFF;}
</style>
<g>
	<g>
		<path class="st0" d="M35.7,100.6V45h16.9l10.1,37.9l10-37.9h16.9v55.6H79.1V56.7L68,100.6H57.2L46.2,56.7v43.8H35.7z"/>
	</g>
	<path class="st0" d="M62.5,10c-6.8,0-13.4,1.1-19.5,3.2c-2.2-1.9-5.3-3.2-8.4-3.2c-7.1,0-12.9,5.8-12.9,12.9c0,0.7,0.1,1.4,0.1,2.2
		C8.4,36.4,0,53.4,0,72.5c0,15.9,6.1,31.1,17,42.9c1.8,1.9,4.8,2.1,6.8,0.3c1.9-1.8,2.1-4.8,0.3-6.8c-9.4-10.1-14.4-23-14.4-36.4
		c0-15.5,6.8-29.6,17.4-39.3c2.1,1.5,4.7,2.5,7.5,2.5c7.1,0,12.9-5.8,12.9-12.9c0-0.3,0-0.7,0-1c4.8-1.4,9.8-2.2,15.1-2.2
		c29.2,0,52.8,23.8,52.8,52.8c0,13.6-5.1,26.4-14.4,36.2c-1.8,1.9-1.8,5,0.3,6.8c1,0.8,2.1,1.2,3.3,1.2s2.6-0.6,3.5-1.5
		c10.9-11.6,17-26.8,17-42.9C125,37.9,96.9,10,62.5,10z"/>
</g>
</svg>
