<svg xmlns="http://www.w3.org/2000/svg" width="125px" height="125px" viewBox="0 0 125 125">
<path fill="#FF7300" d="M117.09,59.176l-4.547-12.643H95.135l-4.453,12.643h-7.848l17.034-45.714h8.098L125,59.176H117.09z
	 M110.581,40.118l-4.267-12.394c-0.312-0.83-0.742-2.138-1.292-3.923c-0.551-1.785-0.93-3.093-1.137-3.924
	c-0.561,2.554-1.381,5.346-2.46,8.377l-4.111,11.864H110.581L110.581,40.118z"/>
<path fill="#FF7300" d="M57.022,76.456c-1.903-3.379-3.917-6.492-5.86-9.505c-1.679-2.597-3.26-5.045-4.595-7.403
	c-2.926-5.023-4.523-9.451-4.759-13.151c-0.026-0.396-0.032-0.785-0.032-1.164c0-5.573,2.329-9.434,3.087-10.702
	c0.308-0.506,0.489-0.814,0.489-1.254c0-0.612-0.415-1.203-1.119-1.584c-0.706-0.376-1.639-0.514-2.512-0.372
	c-0.738,0.119-1.353,0.423-1.75,0.829l-0.006-0.001c-0.464,0.382-1.694,1.399-3.3,3.14c-2.96,3.232-4.907,6.827-5.778,10.667
	c-0.366,1.508-0.548,3.14-0.548,4.853c0,3.657,0.851,7.738,2.456,11.783c1.87,4.874,4.73,9.904,7.501,14.768l1.698,3.007
	c2.646,4.675,5.803,10.754,6.773,16.333c0.272,1.438,0.413,2.905,0.413,4.358c0,3.011-0.58,5.991-1.716,8.836
	c-2.491,6.019-5.846,9.979-7.113,11.479c-0.587,0.693-0.889,1.046-0.889,1.623c0,0.943,0.973,1.766,2.315,1.958
	c1.141,0.173,2.288-0.133,2.965-0.741l0.227-0.142c1.848-1.154,7.474-4.658,12.709-11.488c3.576-4.805,5.546-10.505,5.546-16.053
	l-0.003-0.444C63.196,90.288,61.111,83.683,57.022,76.456L57.022,76.456z M87.357,76.456c-1.902-3.379-3.912-6.492-5.859-9.505
	c-1.676-2.597-3.26-5.045-4.597-7.403c-2.925-5.023-4.521-9.451-4.758-13.151c-0.023-0.396-0.026-0.785-0.026-1.164
	c0-5.573,2.323-9.434,3.085-10.702c0.308-0.506,0.49-0.814,0.49-1.254c0-0.612-0.416-1.203-1.123-1.584
	c-0.704-0.376-1.635-0.514-2.511-0.372c-0.739,0.119-1.354,0.423-1.748,0.829l-0.01-0.001c-0.462,0.382-1.695,1.399-3.301,3.14
	c-2.961,3.232-4.904,6.827-5.778,10.667c-0.364,1.508-0.548,3.14-0.548,4.853c0,3.657,0.851,7.738,2.458,11.783
	c1.87,4.874,4.732,9.904,7.5,14.768l1.7,3.007c2.644,4.675,5.796,10.754,6.773,16.333c0.271,1.438,0.411,2.905,0.411,4.358
	c0.002,3.011-0.583,5.991-1.719,8.836c-2.49,6.019-5.846,9.979-7.111,11.479c-0.589,0.693-0.887,1.046-0.887,1.623
	c0,0.943,0.969,1.766,2.313,1.958c1.141,0.173,2.288-0.133,2.965-0.741l0.229-0.142c1.847-1.154,7.472-4.658,12.707-11.488
	c3.576-4.805,5.543-10.505,5.543-16.053v-0.444C93.532,90.288,91.45,83.683,87.357,76.456L87.357,76.456z M26.686,76.456
	c-1.902-3.379-3.913-6.492-5.86-9.505c-1.675-2.597-3.259-5.045-4.596-7.403c-2.925-5.023-4.526-9.451-4.759-13.151
	c-0.021-0.396-0.031-0.785-0.031-1.164c0-5.573,2.325-9.434,3.09-10.702c0.305-0.506,0.488-0.814,0.488-1.254
	c0-0.612-0.417-1.203-1.124-1.584c-0.701-0.376-1.635-0.514-2.504-0.372c-0.742,0.119-1.353,0.423-1.754,0.829l-0.007-0.003
	c-0.464,0.383-1.696,1.401-3.3,3.138c-2.962,3.234-4.907,6.829-5.778,10.671C0.181,47.463,0,49.095,0,50.808
	c0,3.657,0.854,7.738,2.456,11.783c1.872,4.874,4.729,9.904,7.503,14.77l1.698,3.002c2.644,4.678,5.8,10.757,6.776,16.336
	c0.27,1.438,0.408,2.905,0.408,4.358c0.003,3.011-0.579,5.991-1.714,8.836c-2.492,6.015-5.846,9.979-7.115,11.476
	c-0.589,0.696-0.883,1.047-0.883,1.624c0,0.943,0.971,1.764,2.315,1.96c1.137,0.173,2.283-0.135,2.962-0.741l0.227-0.142
	c1.848-1.154,7.478-4.658,12.711-11.492c3.575-4.802,5.544-10.503,5.544-16.049l-0.003-0.444
	C32.863,90.288,30.778,83.683,26.686,76.456z"/>
</svg>