<svg xmlns="http://www.w3.org/2000/svg" width="56" height="41" viewBox="0 0 56 41"><path fill="#fff" d="M15.74 31.453l-7.587 7.504 1.185 1.169 8.144-8.052c3.086 1.013 6.594 1.672 10.52 1.672 16.973 0 26.242-12.235 26.629-12.756l.361-.49-.361-.489c-.281-.377-5.221-6.895-14.369-10.463l7.586-7.502-1.184-1.171-8.145 8.052c-3.084-1.013-6.592-1.672-10.518-1.672-16.973 0-26.242 12.236-26.629 12.757l-.363.488.364.49c.278.377 5.221 6.894 14.367 10.463zm37.142-10.953c-1.914 2.264-10.664 11.592-24.881 11.592-3.37 0-6.428-.528-9.165-1.358l5.065-5.008c1.133.873 2.555 1.397 4.1 1.397 3.691 0 6.697-2.971 6.697-6.623 0-1.528-.531-2.932-1.412-4.054l5.648-5.587c7.772 2.86 12.588 8.032 13.948 9.641zm-29.905 0c0-2.739 2.253-4.967 5.024-4.967 1.084 0 2.084.345 2.904.924l-6.993 6.917c-.586-.812-.935-1.803-.935-2.874zm10.047 0c0 2.74-2.254 4.968-5.023 4.968-1.084 0-2.085-.345-2.906-.924l6.994-6.917c.588.811.935 1.803.935 2.873zm-5.023-11.59c3.367 0 6.428.527 9.164 1.357l-5.064 5.007c-1.135-.873-2.555-1.397-4.1-1.397-3.693 0-6.698 2.971-6.698 6.623 0 1.527.531 2.933 1.413 4.054l-5.65 5.588c-7.772-2.861-12.587-8.033-13.945-9.642 1.912-2.264 10.662-11.59 24.88-11.59z"/></svg>