<?xml version="1.0" encoding="utf-8"?>
<!-- Generator: Adobe Illustrator 16.0.0, SVG Export Plug-In . SVG Version: 6.00 Build 0)  -->
<!DOCTYPE svg PUBLIC "-//W3C//DTD SVG 1.1//EN" "http://www.w3.org/Graphics/SVG/1.1/DTD/svg11.dtd">
<svg version="1.1" id="Layer_1" xmlns="http://www.w3.org/2000/svg" xmlns:xlink="http://www.w3.org/1999/xlink" x="0px" y="0px"
	 width="52px" height="33.991px" viewBox="0 0 52 33.991" enable-background="new 0 0 52 33.991" xml:space="preserve">
<g fill="#FFF">
	<g>
		<path d="M52,25.091l-2.45-2.432l-3.26,3.236l-3.261-3.236l-2.45,2.432l3.26,3.236l-3.26,3.237l2.45,2.434l3.261-3.235l3.26,3.235
			L52,31.565l-3.258-3.237L52,25.091z M18.72,28.605l5.402,5.386l5.348-5.333c-1.379-1.391-3.289-2.254-5.402-2.254
			C21.984,26.404,20.095,27.245,18.72,28.605z M45.033,13.141l3.156-3.146C42.017,3.823,33.48,0,24.069,0
			C14.684,0,6.171,3.8,0,9.942l3.157,3.148C8.52,7.758,15.915,4.455,24.069,4.455C32.251,4.455,39.67,7.777,45.033,13.141z
			 M24.069,8.771c-6.96,0-13.271,2.818-17.85,7.372l3.34,3.33c3.721-3.697,8.853-5.985,14.509-5.985
			c5.684,0,10.833,2.309,14.561,6.039l3.343-3.333C37.391,11.61,31.056,8.771,24.069,8.771z M12.622,22.526l3.037,3.025
			c2.159-2.139,5.132-3.466,8.41-3.466c3.305,0,6.3,1.349,8.464,3.52l3.036-3.027c-2.942-2.948-7.01-4.778-11.5-4.778
			C19.606,17.799,15.56,19.61,12.622,22.526z"/>
	</g>
</g>
</svg>
