<svg xmlns="http://www.w3.org/2000/svg" width="125" height="125" viewBox="7 7 125 125" enable-background="new 7 7 125 125"><path fill="#fff" d="M95.857 117.82c0 7.278-5.9 13.18-13.18 13.18h-61.5c-7.277 0-13.177-5.9-13.177-13.18v-61.5c0-7.277 5.9-13.178 13.179-13.178h61.5c7.277 0 13.178 5.9 13.178 13.178v61.5zm4.393-92.248h-61.5c-7.278 0-13.179 5.9-13.179 13.178h61.5c7.278 0 13.18 5.9 13.18 13.179v61.5c7.277 0 13.178-5.9 13.178-13.18v-61.5c-.001-7.277-5.902-13.177-13.179-13.177zm17.57-17.572h-61.5c-7.277 0-13.179 5.9-13.179 13.179h61.5c7.276 0 13.178 5.9 13.178 13.179v61.5c7.278 0 13.18-5.899 13.18-13.178v-61.5c.001-7.28-5.899-13.18-13.179-13.18z"/></svg>