<svg xmlns="http://www.w3.org/2000/svg" width="125" height="125" viewBox="-25.5 -25.5 125 125"
    enable-background="new -25.5 -25.5 125 125">
    <path fill="#90a4ae"
        d="M26.604 42.189v-10.38h-33.603l-8.85-13.256-8.651 5.755 8.474 12.69-8.474 12.69 8.651 5.757 8.85-13.256h33.603zm71.896-17.879l-8.648-5.756-8.853 13.257h-33.602v10.38h33.602l8.849 13.255 8.65-5.757-8.469-12.69 8.471-12.689zm-56.301 23.069h-10.397v33.55l-13.279 8.837 5.771 8.636 12.706-8.455 12.714 8.454 5.765-8.636-13.277-8.837v-33.55h-.003zm-10.397-20.758h10.397v-33.547l13.276-8.84-5.765-8.636-12.712 8.46-12.705-8.46-5.771 8.636 13.279 8.84v33.547h.001zm-29.582-17.019l20.711 20.689 7.351-7.341-20.714-20.684 3.129-15.619-10.195-2.04-2.994 14.956-14.983 2.995 2.042 10.178 15.653-3.134zm69.556 54.783l-20.708-20.674-7.35 7.336 20.712 20.677-3.126 15.63 10.195 2.037 2.999-14.956 14.979-2.996-2.042-10.177-15.659 3.123zm-41.496-13.338l-7.351-7.336-20.715 20.674-15.646-3.121-2.042 10.177 14.98 2.992 2.999 14.96 10.195-2.039-3.136-15.628 20.716-20.679zm13.443-28.097l7.35 7.341 20.703-20.678 15.656 3.123 2.041-10.178-14.978-2.995-2.999-14.956-10.195 2.039 3.126 15.629-20.704 20.675z" />
</svg>