<svg xmlns="http://www.w3.org/2000/svg" width="13.912" height="11.831" viewBox="0 0 13.912 11.831">
  <path id="noun_tap_2533194" d="M8.288,13.812h3.2a.055.055,0,0,0,.053-.053v-.122a.609.609,0,0,1,.609-.609h.678V10.857H12.41a.554.554,0,0,0-.375.147,1.313,1.313,0,0,1-2.2-.967,1.369,1.369,0,0,1,.036-.317,1.3,1.3,0,0,1,.942-.959,1.319,1.319,0,0,1,1.24.317.511.511,0,0,0,.361.136H14.8a.511.511,0,0,0,.361-.136,1.32,1.32,0,0,1,1.24-.317,1.3,1.3,0,0,1,.942.959,1.32,1.32,0,0,1-1.281,1.634,1.3,1.3,0,0,1-.887-.35.554.554,0,0,0-.375-.147h-.253v2.171h.7a.609.609,0,0,1,.609.609v.122a.055.055,0,0,0,.053.053H18.33V12.643a.278.278,0,1,1,.556,0v1.442s0,0,0,0v3.694s0,0,0,0V19.8a.278.278,0,1,1-.556,0V18.062H15.913a.053.053,0,0,0-.053.053.609.609,0,0,1-.609.609h-3.1a.609.609,0,0,1-.609-.609.053.053,0,0,0-.053-.053h-2.2v2.21a.279.279,0,0,1-.278.278H5.253a.279.279,0,0,1-.278-.278V17.125A3.318,3.318,0,0,1,8.288,13.812Z" transform="translate(-4.975 -8.719)"/>
</svg>
