<?xml version="1.0" encoding="utf-8"?>
<!-- Generator: Adobe Illustrator 14.0.0, SVG Export Plug-In . SVG Version: 6.00 Build 43363)  -->
<svg version="1.2" baseProfile="tiny" id="Layer_1" xmlns="http://www.w3.org/2000/svg" xmlns:xlink="http://www.w3.org/1999/xlink"
	 x="0px" y="0px" width="102px" height="102px" viewBox="0 0 102 102" xml:space="preserve">
<g>
	<path fill="#FF7300" d="M63.509,51.12c0,1.146,0.933,2.078,2.078,2.078c1.146,0,2.078-0.933,2.078-2.078c0-1.146-0.932-2.078-2.078-2.078
		C64.441,49.042,63.509,49.974,63.509,51.12"/>
	<path fill="#FF7300" d="M31.646,49.667c0.623-2.041,2.524-3.53,4.766-3.53c2.243,0,4.144,1.489,4.767,3.531h19.643
		c0.623-2.042,2.523-3.531,4.766-3.531s4.143,1.489,4.767,3.53L101,49.58V15.366C101,7.432,94.568,1,86.634,1H15.366
		C7.432,1,1,7.432,1,15.366v34.211L31.646,49.667z"/>
	<path fill="#FF7300" d="M70.354,52.571c-0.623,2.042-2.523,3.531-4.767,3.531c-2.242,0-4.143-1.489-4.767-3.53H41.179
		c-0.623,2.041-2.523,3.53-4.767,3.53c-2.242,0-4.143-1.489-4.767-3.531L1,52.481v34.153C1,94.568,7.432,101,15.365,101h71.269
		C94.568,101,101,94.568,101,86.635V52.485L70.354,52.571z M20.769,91.235c-2.354,0-4.264-1.908-4.264-4.263
		c0-2.355,1.909-4.264,4.264-4.264s4.264,1.908,4.264,4.264C25.032,89.327,23.123,91.235,20.769,91.235 M32.834,91.235
		c-2.354,0-4.264-1.908-4.264-4.263c0-2.355,1.909-4.264,4.264-4.264s4.264,1.908,4.264,4.264
		C37.098,89.327,35.188,91.235,32.834,91.235 M44.899,91.235c-2.354,0-4.264-1.908-4.264-4.263c0-2.355,1.909-4.264,4.264-4.264
		s4.264,1.908,4.264,4.264C49.163,89.327,47.254,91.235,44.899,91.235 M57.06,91.235c-2.354,0-4.264-1.908-4.264-4.263
		c0-2.355,1.909-4.264,4.264-4.264s4.264,1.908,4.264,4.264C61.323,89.327,59.414,91.235,57.06,91.235 M69.125,91.235
		c-2.355,0-4.264-1.908-4.264-4.263c0-2.355,1.908-4.264,4.264-4.264c2.354,0,4.264,1.908,4.264,4.264
		C73.389,89.327,71.479,91.235,69.125,91.235 M81.231,91.235c-2.354,0-4.264-1.908-4.264-4.263c0-2.355,1.909-4.264,4.264-4.264
		s4.264,1.908,4.264,4.264C85.495,89.327,83.586,91.235,81.231,91.235"/>
	<path fill="#FF7300" d="M34.334,51.12c0,1.146,0.933,2.078,2.078,2.078c1.146,0,2.079-0.933,2.079-2.078c0-1.146-0.933-2.078-2.079-2.078
		C35.267,49.042,34.334,49.974,34.334,51.12"/>
</g>
</svg>