<svg xmlns="http://www.w3.org/2000/svg" width="119" height="123" viewBox="0 0 119 123"><g fill="#FFF"><path d="M59.504.32a3.239 3.239 0 0 0-3.236 3.236V18.32a3.24 3.24 0 0 0 3.236 3.236 3.24 3.24 0 0 0 3.236-3.236V3.557A3.24 3.24 0 0 0 59.504.32zM115.263 51.98H100.5a3.239 3.239 0 0 0-3.236 3.236 3.24 3.24 0 0 0 3.236 3.236h14.763a3.24 3.24 0 0 0 3.237-3.236 3.24 3.24 0 0 0-3.237-3.236zM18.499 51.98H3.736A3.239 3.239 0 0 0 .5 55.216a3.24 3.24 0 0 0 3.236 3.236h14.763a3.24 3.24 0 0 0 3.237-3.236 3.24 3.24 0 0 0-3.237-3.236zM28.65 26.187L18.129 15.832a3.219 3.219 0 0 0-2.296-.93 3.223 3.223 0 0 0-2.282.966 3.223 3.223 0 0 0-.93 2.296c.008.864.351 1.675.967 2.281L24.11 30.801c.61.601 1.415.93 2.271.93h.025a3.215 3.215 0 0 0 2.281-.966c.607-.616.937-1.432.93-2.296s-.349-1.676-.967-2.282zM106.25 15.869a3.21 3.21 0 0 0-2.279-.966h-.027c-.854 0-1.66.33-2.27.93L91.151 26.187a3.212 3.212 0 0 0-.966 2.281c-.008.864.323 1.68.93 2.296s1.416.959 2.28.966h.026c.855 0 1.66-.329 2.27-.93l10.523-10.355a3.22 3.22 0 0 0 .966-2.281 3.207 3.207 0 0 0-.93-2.295zM28.709 78.674a3.22 3.22 0 0 0-2.104-1.307 3.21 3.21 0 0 0-2.412.564l-10.338 7.414a3.242 3.242 0 0 0-.744 4.518 3.222 3.222 0 0 0 2.636 1.351c.671 0 1.324-.209 1.88-.608l10.339-7.415a3.24 3.24 0 0 0 .743-4.517zM104.908 85.346l-10.337-7.414a3.207 3.207 0 0 0-2.412-.564c-.853.141-1.6.604-2.104 1.307a3.241 3.241 0 0 0 .744 4.517l10.338 7.415a3.21 3.21 0 0 0 2.412.564 3.215 3.215 0 0 0 2.104-1.307 3.242 3.242 0 0 0-.745-4.518zM72.041 100.482H46.966a2.764 2.764 0 0 1-1.939-.788 2.772 2.772 0 0 1-.84-1.919c-.218-8.248-2.799-11.313-7.941-17.414-.708-.842-1.44-1.711-2.226-2.662a32.912 32.912 0 0 1-5.532-9.648 32.925 32.925 0 0 1-2.002-11.347 32.826 32.826 0 0 1 5.641-18.463 33.185 33.185 0 0 1 8.916-8.915 32.964 32.964 0 0 1 5.609-3.045 32.797 32.797 0 0 1 12.853-2.596c4.456 0 8.781.873 12.854 2.596a32.993 32.993 0 0 1 5.608 3.045 33.26 33.26 0 0 1 4.886 4.03 33.078 33.078 0 0 1 7.075 10.494 32.826 32.826 0 0 1 2.595 12.854 32.901 32.901 0 0 1-7.533 20.995c-.785.951-1.517 1.82-2.226 2.662-5.143 6.102-7.724 9.166-7.94 17.414a2.765 2.765 0 0 1-.842 1.919 2.767 2.767 0 0 1-1.941.788zm-23.66-4.257h22.246c.237-3.896 1.026-6.984 2.5-9.865 1.531-2.99 3.67-5.529 6.379-8.743.701-.832 1.427-1.692 2.197-2.627a28.807 28.807 0 0 0 6.561-18.285c0-15.858-12.901-28.76-28.76-28.76s-28.76 12.901-28.76 28.76c0 6.661 2.33 13.155 6.561 18.285.771.935 1.496 1.795 2.197 2.627 2.707 3.214 4.847 5.753 6.378 8.743 1.475 2.88 2.264 5.968 2.501 9.865zM45.426 117.831c1.301 2.887 3.849 4.849 6.778 4.849h15.395c2.931 0 5.478-1.962 6.778-4.849H45.426zM73.494 106.074H46.31a1.746 1.746 0 0 1-1.746-1.746v-.768c0-.964.782-1.745 1.746-1.745h27.185c.963 0 1.744.781 1.744 1.745v.768a1.746 1.746 0 0 1-1.745 1.746zM73.494 111.412H46.31a1.746 1.746 0 0 1-1.746-1.746v-.768c0-.963.782-1.745 1.746-1.745h27.185c.963 0 1.744.782 1.744 1.745v.768a1.746 1.746 0 0 1-1.745 1.746zM73.494 116.693H46.31a1.746 1.746 0 0 1-1.746-1.746v-.768c0-.964.782-1.745 1.746-1.745h27.185c.963 0 1.744.781 1.744 1.745v.768a1.746 1.746 0 0 1-1.745 1.746z"/><path d="M81.371 58.169a2.554 2.554 0 0 1-2.555-2.555c0-11.601-7.779-19.703-18.916-19.703a2.556 2.556 0 0 1 0-5.111c3.539 0 6.869.657 9.896 1.954a22.325 22.325 0 0 1 7.635 5.381c4.188 4.525 6.494 10.732 6.494 17.479a2.554 2.554 0 0 1-2.554 2.555z"/></g></svg>