<svg xmlns="http://www.w3.org/2000/svg" width="125" height="125" viewBox="0 0 125 125"><g fill="#CED8E1"><path d="M70.422 63.109c0 .965.783 1.747 1.749 1.747h50.083c.967 0 1.746-.782 1.746-1.747v-39.444h-53.578v39.444zm40.103-36.204h10.262v10.262h-10.262v-10.262zm0 12.044h10.262v10.263h-10.262v-10.263zm0 12.045h10.262v10.262h-10.262v-10.262zm-12.13-24.089h10.262v10.262h-10.262v-10.262zm0 12.044h10.262v10.263h-10.262v-10.263zm0 12.045h10.262v10.262h-10.262v-10.262zm-12.132-24.089h10.262v10.262h-10.262v-10.262zm0 12.044h10.262v10.263h-10.262v-10.263zm0 12.045h10.262v10.262h-10.262v-10.262zm-12.131-24.089h10.263v10.262h-10.263v-10.262zm0 12.044h10.263v10.263h-10.263v-10.263zm0 12.045h10.263v10.262h-10.263v-10.262zM122.254 11.277h-10.407v-6.881c0-.962-.781-1.741-1.744-1.741h-.042c-.96 0-1.741.779-1.741 1.741v6.881h-21.426v-6.881c0-.962-.781-1.741-1.743-1.741h-.042c-.961 0-1.742.779-1.742 1.741v6.881h-11.196c-.966 0-1.749.782-1.749 1.747v7.184h53.578v-7.184c0-.964-.779-1.747-1.746-1.747zm-37.114 7.959c-1.968 0-3.564-1.597-3.564-3.565 0-1.319.726-2.457 1.791-3.075v2.144c0 .962.781 1.742 1.742 1.742h.042c.962 0 1.743-.78 1.743-1.742v-2.153c1.077.612 1.812 1.759 1.812 3.085-.001 1.968-1.598 3.564-3.566 3.564zm24.737 0c-1.968 0-3.564-1.597-3.564-3.565 0-1.407.823-2.612 2.007-3.191v2.26c0 .962.781 1.742 1.741 1.742h.042c.963 0 1.744-.78 1.744-1.742v-2.035c.96.638 1.595 1.729 1.595 2.967-.001 1.968-1.597 3.564-3.565 3.564zM63.758 49.543c-2.742 0-4.964 2.223-4.964 4.963v21.509c0 .914-.741 1.655-1.655 1.655-.913 0-1.655-.741-1.655-1.655v-31.437c0-2.74-2.221-4.963-4.963-4.963s-4.964 2.223-4.964 4.963v28.128c0 .914-.742 1.656-1.655 1.656-.912 0-1.654-.742-1.654-1.656v-31.436c0-2.741-2.223-4.964-4.963-4.964-2.742 0-4.965 2.223-4.965 4.964v31.437c0 .914-.74 1.656-1.654 1.656-.913 0-1.654-.742-1.654-1.656v-24.819c0-2.741-2.223-4.963-4.964-4.963s-4.964 2.222-4.964 4.963v41.365l-6.701-9.169c-1.986-3.062-5.86-4.088-8.7-2.333-2.83 1.792-3.531 5.704-1.572 8.756 0 0 10.807 16.356 15.414 23.36 4.606 7 12.068 12.478 26.024 12.478 23.105 0 25.172-17.843 25.172-23.163v-44.675c0-2.741-2.223-4.964-4.963-4.964z"/></g></svg>