<svg xmlns="http://www.w3.org/2000/svg" width="38" height="38" viewBox="0 -4.5 38 38" enable-background="new 0 -4.5 38 38"><path fill="#fff" d="M18.769 9.667l-3.887-3.896-9.207 9.224-2.593 2.599-2.081-2.088 5.463-5.47v-5.792h2.944v2.897l5.504-5.545 5.824 5.867c-.765.625-1.43 1.369-1.967 2.204zm-1.454 5.008c0-1.294.258-2.528.738-3.648l-3.193-3.169-9.237 9.225v10.32h18.502v-3.783c-3.924-1.09-6.81-4.685-6.81-8.945zm19.474 7.224l-3.486-3.168c.743-1.229 1.135-2.627 1.135-4.057 0-4.345-3.529-7.879-7.871-7.879-4.338 0-7.867 3.534-7.867 7.879 0 4.346 3.529 7.879 7.867 7.879 1.438 0 2.843-.395 4.072-1.144l3.496 3.174c.129.127.299.196.479.196.185 0 .355-.072.482-.201l1.702-1.704c.129-.128.201-.3.201-.481.001-.183-.069-.356-.21-.494zm-10.223-2.32c-2.699 0-4.896-2.199-4.896-4.904 0-2.704 2.197-4.903 4.896-4.903 2.701 0 4.898 2.199 4.898 4.903.002 2.705-2.196 4.904-4.898 4.904z"/></svg>