<svg xmlns="http://www.w3.org/2000/svg" width="43" height="101" viewBox="0 0 43 101">
    <g fill="none" fill-rule="evenodd">
        <path stroke="#4A4A4A" stroke-width="3.375" d="M8.49 27.365a5.063 5.063 0 0 0-5.062 5.063v48.56c0 10.12 8.204 18.325 18.325 18.325 10.12 0 18.325-8.205 18.325-18.326V32.428a5.063 5.063 0 0 0-5.062-5.063H8.49z"/>
        <path stroke="#4A4A4A" stroke-width="3.375" d="M12.129 37.637h19.248v15.456H12.129z"/>
        <path fill="#4A4A4A" fill-rule="nonzero" d="M42.904 8.598l-3.265 3.159c-9.98-9.658-26.301-9.658-36.281 0L0 8.597c11.845-11.463 31.059-11.463 42.904 0z"/>
        <path fill="#4A4A4A" fill-rule="nonzero" d="M5.8 16.89c4.048-3.755 9.541-5.763 15.324-5.763 5.782 0 11.275 2.008 15.322 5.762l-3.373 3.056c-6.553-5.937-17.25-5.937-23.803 0L5.8 16.889z"/>
    </g>
</svg>
