<svg xmlns="http://www.w3.org/2000/svg" width="175.026" height="39.319" viewBox="0 0 175.026 39.319">
  <g id="Group_1342" data-name="Group 1342" transform="translate(-4056 -759)">
    <path id="Path_331" data-name="Path 331" d="M73.6,68.092a10.341,10.341,0,0,1-20.364,2.373H1V65.153H53.415a10.377,10.377,0,0,1,9.916-7.4,10.253,10.253,0,0,1,6.729,2.568l30.316-21.373,3.046,4.338L73.053,64.71A10.2,10.2,0,0,1,73.6,68.092ZM63.26,63.063a5.01,5.01,0,1,0,.035,0Z" transform="translate(4055 720.055)" fill="#d9d9d9"/>
    <path id="Path_332" data-name="Path 332" d="M130.6,46.8H78.365a10.324,10.324,0,1,0-.142,5.312H130.6Zm-62.331,7.4a5.011,5.011,0,1,1,.035,0Z" transform="translate(4100.423 738.801)" fill="#d9d9d9"/>
  </g>
</svg>
