<svg xmlns="http://www.w3.org/2000/svg" width="16.789" height="24.533" viewBox="0 0 16.789 24.533">
  <g id="Group_1340" data-name="Group 1340" transform="translate(20851.939 974.891)">
    <g id="Group_1338" data-name="Group 1338" transform="translate(-20844.078 -958.891) rotate(90)">
      <g id="Group_77" data-name="Group 77" transform="translate(0 0)">
        <path id="Path_88" data-name="Path 88" d="M4.442,1.453C5.868.691,6.819.29,7.848,1.376a.42.42,0,0,0,.554.041.38.38,0,0,0,.04-.522C6.939-.675,5.354.168,4.086.81,2.659,1.572,1.708,1.973.679.887A.42.42,0,0,0,.125.846a.383.383,0,0,0-.04.522C1.588,2.937,3.173,2.135,4.442,1.453Z" transform="translate(0.006)"/>
        <path id="Path_89" data-name="Path 89" d="M4.442,1.453C5.868.691,6.819.29,7.848,1.376a.42.42,0,0,0,.555.041.38.38,0,0,0,.04-.522C6.939-.675,5.354.168,4.086.81,2.659,1.572,1.708,1.973.679.887A.42.42,0,0,0,.125.846a.383.383,0,0,0-.04.522C1.588,2.937,3.173,2.095,4.442,1.453Z" transform="translate(0.003 2.813)"/>
        <path id="Path_90" data-name="Path 90" d="M4.442,1.453C5.868.691,6.819.29,7.848,1.376a.42.42,0,0,0,.555.041.38.38,0,0,0,.04-.522C6.939-.675,5.354.168,4.086.81,2.659,1.572,1.708,1.973.679.887A.42.42,0,0,0,.125.846a.384.384,0,0,0-.04.522C1.588,2.937,3.173,2.135,4.442,1.453Z" transform="translate(0 5.587)"/>
      </g>
    </g>
    <path id="noun_tap_2533194" d="M8.5,14.133h3.4a.058.058,0,0,0,.056-.056v-.13A.647.647,0,0,1,12.6,13.3h.721V10.992H12.88a.589.589,0,0,0-.4.157,1.4,1.4,0,0,1-2.343-1.028,1.456,1.456,0,0,1,.038-.337,1.387,1.387,0,0,1,1-1.02A1.4,1.4,0,0,1,12.5,9.1a.544.544,0,0,0,.384.145h2.541a.544.544,0,0,0,.384-.145,1.4,1.4,0,0,1,1.318-.337,1.387,1.387,0,0,1,1,1.02,1.4,1.4,0,0,1-1.362,1.738,1.384,1.384,0,0,1-.943-.372.589.589,0,0,0-.4-.157h-.269V13.3H15.9a.647.647,0,0,1,.647.647v.13a.058.058,0,0,0,.056.056h2.57V12.891a.3.3,0,1,1,.591,0v1.533s0,0,0,0v3.927s0,0,0,0V20.5a.3.3,0,1,1-.591,0V18.652H16.6a.056.056,0,0,0-.056.056.647.647,0,0,1-.647.647H12.6a.647.647,0,0,1-.647-.647.056.056,0,0,0-.056-.056H9.555V21a.3.3,0,0,1-.3.3H5.271a.3.3,0,0,1-.3-.3V17.656A3.527,3.527,0,0,1,8.5,14.133Z" transform="translate(-20854.916 -983.61)"/>
  </g>
</svg>
