<svg xmlns="http://www.w3.org/2000/svg" width="125" height="125" viewBox="-36 -37.5 125 125" enable-background="new -36 -37.5 125 125"><path fill="#90A4AE" d="M-.012-11.033l-34.988 93.899h16.12l9.148-25.97h35.756l9.337 25.97h16.247l-34.989-93.899h-16.631zm-5.244 54.754l8.442-24.37c2.217-6.225 3.9-11.961 5.053-17.206.424 1.706 1.206 4.394 2.333 8.058 1.128 3.668 2.016 6.356 2.653 8.06l8.763 25.456h-27.244v.002zm85.078-59.897c-3.321-.572-7.775.49-13.262 5.349-1.66-1.803-3.899-2.949-6.299-3.272.434-3.255 3.082-6.067 4.951-8.521 1.343-1.759 4.522-6.097 3.479-7.942-1.231-2.168-20.212-5.839-22.235 5.873-.57 3.32.493 7.775 5.35 13.259-1.801 1.662-2.949 3.903-3.271 6.303-3.256-.43-6.067-3.083-8.521-4.951-1.758-1.342-6.098-4.525-7.941-3.479-2.17 1.227-5.841 20.21 5.871 22.233 3.321.572 7.774-.493 13.262-5.349 1.663 1.8 3.901 2.95 6.301 3.272-.431 3.255-3.084 6.067-4.951 8.519-1.341 1.762-4.522 6.099-3.478 7.943 1.228 2.171 20.213 5.839 22.231-5.874.573-3.318-.488-7.774-5.35-13.259 1.803-1.662 2.952-3.9 3.273-6.3 3.256.43 6.067 3.083 8.52 4.951 1.758 1.342 6.098 4.522 7.941 3.479 2.172-1.228 5.847-20.213-5.871-22.234zm-19.279 16.395c-2.188.917-4.709-.118-5.626-2.31-.917-2.19.116-4.709 2.308-5.625 2.191-.918 4.712.113 5.626 2.306.919 2.191-.114 4.714-2.308 5.629z"/></svg>