<svg xmlns="http://www.w3.org/2000/svg" width="25.414" height="20.875" viewBox="0 0 25.414 20.875">
  <path id="Icon_ionic-ios-airplane" data-name="Icon ionic-ios-airplane" d="M23.561,13.685c-.193,0-.84.006-1.021.017l-3.681.1a.105.105,0,0,1-.1-.051L13.243,5.482a.912.912,0,0,0-.766-.42H11.133c-.318,0-.425.318-.312.613l2.842,8.1a.111.111,0,0,1-.1.153l-6.943.1a.457.457,0,0,1-.374-.176L4.144,11.3a.9.9,0,0,0-.715-.346H2.477a.226.226,0,0,0-.216.3l1.129,3.9a.924.924,0,0,1,0,.675l-1.129,3.9a.226.226,0,0,0,.216.3h.947a.917.917,0,0,0,.715-.346l2.139-2.592a.465.465,0,0,1,.374-.176l6.9.153a.113.113,0,0,1,.1.153l-2.842,8.106c-.113.295-.006.613.312.613h1.344a.9.9,0,0,0,.766-.42l5.525-8.259a.111.111,0,0,1,.1-.051l3.681.1c.187.011.828.017,1.021.017,2.513,0,4.1-.811,4.1-1.815S26.08,13.685,23.561,13.685Z" transform="translate(-2.248 -5.063)"/>
</svg>
