<svg xmlns="http://www.w3.org/2000/svg" width="125px" height="125px" viewBox="0 0 125 125">
<path fill="#FFFFFF" d="M97.124,27.847c-10.84-6.352-18.85-2.693-25.202,4.281c-6.353,6.973-7.181,14.431-7.181,15.742
	c0,1.312-0.225,4.523-2.831,4.488l-0.112-0.005c-1.107-0.067-2.672-0.798-3.161-3.822c-0.793-4.908-0.552-7.595,0.483-10.979
	c1.036-3.383,4.281-5.869,2.969-12.152s-7.181-9.252-10.357-9.39s-17.469,0.897-23.821,11.738
	c-6.353,10.84-2.693,18.85,4.281,25.202c6.974,6.353,14.431,7.182,15.743,7.182c1.313,0,4.54,0.345,4.505,2.952l0.003,0.095
	c0.049,1.07-0.322,2.754-3.783,3.228c-4.926,0.676-7.595,0.553-10.978-0.482c-3.384-1.036-5.87-4.281-12.153-2.97
	c-6.283,1.313-9.252,7.182-9.39,10.357C16,76.488,17.036,90.78,27.876,97.133c10.841,6.352,18.85,2.693,25.202-4.281
	c6.353-6.974,7.181-14.431,7.181-15.742c0-1.313,0.216-4.499,2.823-4.465l0.197,0.006c1.093,0.126,2.536,0.934,3.002,3.817
	c0.793,4.908,0.552,7.595-0.483,10.979c-1.036,3.383-4.281,5.869-2.969,12.152c1.312,6.283,7.181,9.253,10.356,9.391
	c3.177,0.138,17.47-0.898,23.822-11.738C103.359,86.41,99.7,78.4,92.727,72.049c-6.975-6.353-14.431-7.181-15.743-7.181
	c-1.312,0-4.522-0.225-4.488-2.831l0.009-0.11c-0.009-1.11,0.632-2.835,3.837-3.354c4.908-0.793,7.596-0.552,10.979,0.483
	c3.384,1.036,5.869,4.282,12.152,2.969c6.283-1.312,9.252-7.181,9.391-10.357C109,48.492,107.965,34.2,97.124,27.847z
	 M62.865,67.725c-2.804,0-5.077-2.273-5.077-5.078c0-2.805,2.273-5.078,5.077-5.078c2.805,0,5.079,2.273,5.079,5.078
	C67.944,65.451,65.67,67.725,62.865,67.725z"/>
</svg>