<svg id="Component_109_3" data-name="Component 109 – 3" xmlns="http://www.w3.org/2000/svg" width="57" height="41" viewBox="0 0 57 41">
  <path id="Path_1172"  d="M7,0H50a7,7,0,0,1,7,7V30a7,7,0,0,1-7,7H7a7,7,0,0,1-7-7V7A7,7,0,0,1,7,0Z" fill="#82929c"/>
  <g id="Group_586" transform="translate(-1138 -561)">
    <rect id="Rectangle_620"  width="25" height="5" rx="2.5" transform="translate(1154 573)" fill="#e1e1e1"/>
    <rect id="Rectangle_621" width="25" height="5" rx="2.5" transform="translate(1154 582)" fill="#e1e1e1"/>
  </g>
  <g id="Group_585" transform="translate(-1126 -577)">
    <rect id="Rectangle_622"  width="7" height="4" transform="translate(1138 614)" fill="#82929c"/>
    <rect id="Rectangle_623"  width="7" height="4" transform="translate(1162 614)" fill="#82929c"/>
    <rect id="Rectangle_624" width="7" height="4" transform="translate(1150 614)" fill="#82929c"/>
  </g>
</svg>
