<svg xmlns="http://www.w3.org/2000/svg" width="125px" height="125px" viewBox="0 0 125 125">
<path fill="#00acd0" d="M118.62,50.333l-3.668-10.197h-14.04l-3.593,10.197h-6.33l13.739-36.872h6.532L125,50.333H118.62z
	 M113.369,34.962l-3.44-9.997c-0.252-0.669-0.599-1.724-1.043-3.165c-0.443-1.439-0.748-2.495-0.916-3.165
	c-0.452,2.06-1.114,4.312-1.985,6.758l-3.314,9.569H113.369L113.369,34.962z"/>
<path fill="#00acd0" d="M39.2,81.882v-7.961H13.424l-6.787-10.17L0,68.168l6.499,9.731L0,87.634l6.637,4.418l6.787-10.17H39.2z
	 M94.347,68.17l-6.636-4.416l-6.787,10.168H55.149v7.96h25.775l6.787,10.17l6.633-4.418l-6.496-9.734L94.347,68.17z M51.161,85.863
	h-7.976V111.6L33,118.377L37.427,125l9.745-6.482L56.925,125l4.422-6.623L51.161,111.6V85.863L51.161,85.863z M43.186,69.941h7.976
	V44.21l10.183-6.785l-4.422-6.622l-9.753,6.488l-9.746-6.488l-4.426,6.622l10.186,6.785L43.186,69.941L43.186,69.941z
	 M20.495,56.885l15.885,15.869l5.639-5.631L26.13,51.259l2.399-11.98l-7.819-1.564l-2.299,11.471l-11.491,2.3l1.568,7.805
	L20.495,56.885z M73.848,98.907L57.966,83.05l-5.641,5.627l15.888,15.86l-2.398,11.989l7.821,1.563l2.301-11.471l11.491-2.297
	l-1.567-7.808L73.848,98.907z M42.019,88.677l-5.64-5.627L20.489,98.907l-12-2.393l-1.568,7.808l11.491,2.293l2.3,11.476
	l7.821-1.564l-2.407-11.984L42.019,88.677z M52.328,67.126l5.638,5.631l15.882-15.861l12.01,2.395l1.566-7.805l-11.492-2.3
	l-2.3-11.471l-7.821,1.564l2.396,11.987L52.328,67.126z"/>
</svg>