<?xml version="1.0" encoding="utf-8"?>
<!-- Generator: Adobe Illustrator 14.0.0, SVG Export Plug-In . SVG Version: 6.00 Build 43363)  -->
<svg version="1.2" baseProfile="tiny" id="Layer_1" xmlns="http://www.w3.org/2000/svg" xmlns:xlink="http://www.w3.org/1999/xlink"
	 x="0px" y="0px" width="102px" height="102px" viewBox="0 0 102 102" xml:space="preserve">
<g>
	<path fill="#7E939E" d="M70.306,52.452c-0.623,2.041-2.523,3.53-4.766,3.53c-2.748,0-4.982-2.235-4.982-4.982c0-2.748,2.234-4.983,4.982-4.983
		c2.242,0,4.143,1.489,4.766,3.531H101V15.365C101,7.432,94.568,1,86.635,1H15.366C7.432,1,1,7.432,1,15.365v34.183h30.599
		c0.623-2.042,2.524-3.531,4.767-3.531c1.296,0,2.479,0.499,3.366,1.313L61.27,33.199l1.593,2.429L41.208,49.834
		c0.09,0.374,0.139,0.765,0.139,1.166c0,2.747-2.235,4.982-4.982,4.982c-2.243,0-4.143-1.489-4.767-3.53H1v34.182
		C1,94.567,7.432,101,15.366,101h71.269C94.568,101,101,94.567,101,86.634V52.452H70.306z M20.769,91.235
		c-2.354,0-4.263-1.909-4.263-4.264s1.909-4.264,4.263-4.264c2.355,0,4.264,1.909,4.264,4.264S23.124,91.235,20.769,91.235
		 M32.834,91.235c-2.355,0-4.264-1.909-4.264-4.264s1.909-4.264,4.264-4.264c2.354,0,4.264,1.909,4.264,4.264
		S35.189,91.235,32.834,91.235 M44.9,91.235c-2.355,0-4.264-1.909-4.264-4.264s1.909-4.264,4.264-4.264
		c2.354,0,4.264,1.909,4.264,4.264S47.254,91.235,44.9,91.235 M57.06,91.235c-2.354,0-4.264-1.909-4.264-4.264
		s1.909-4.264,4.264-4.264c2.355,0,4.264,1.909,4.264,4.264S59.415,91.235,57.06,91.235 M69.125,91.235
		c-2.354,0-4.264-1.909-4.264-4.264s1.909-4.264,4.264-4.264c2.355,0,4.264,1.909,4.264,4.264S71.48,91.235,69.125,91.235
		 M81.232,91.235c-2.355,0-4.265-1.909-4.265-4.264s1.909-4.264,4.265-4.264c2.354,0,4.263,1.909,4.263,4.264
		S83.587,91.235,81.232,91.235"/>
	<path fill="#7E939E" d="M38.443,51c0-1.146-0.933-2.078-2.079-2.078S34.287,49.854,34.287,51c0,1.146,0.932,2.078,2.078,2.078
		S38.443,52.146,38.443,51"/>
	<path fill="#7E939E" d="M63.462,51c0,1.146,0.932,2.078,2.078,2.078c1.146,0,2.078-0.933,2.078-2.078c0-1.146-0.933-2.078-2.078-2.078
		C64.394,48.922,63.462,49.854,63.462,51"/>
</g>
</svg>
