<svg xmlns="http://www.w3.org/2000/svg" width="39" height="39" viewBox="0 0 39 39"><path fill="#1E88E5" d="M33.554 16.653h-1.91v-7.119c0-4.387-4.134-8.534-8.497-8.534h-7.295c-4.362 0-8.495 4.147-8.495 8.534v1.427h5.714v-1.427c0-1.992.897-2.843 2.857-2.843h7.144c1.959 0 2.856.851 2.856 2.843v7.119h-20.482c-.522 0-.946.374-.946.835v19.676c0 .462.424.836.946.836h28.107c.522 0 .946-.374.946-.836v-19.676c.001-.461-.423-.835-.945-.835m-12.625 10.575v3.656c0 .393-.321.712-.714.712h-1.43c-.392 0-.714-.319-.714-.712v-3.656c-.852-.493-1.429-1.4-1.429-2.451 0-1.572 1.28-2.845 2.857-2.845s2.857 1.272 2.857 2.845c.001 1.05-.576 1.957-1.427 2.451"/></svg>