<svg xmlns="http://www.w3.org/2000/svg" width="125" height="125" viewBox="-52.5 -52.5 125 125" enable-background="new -52.5 -52.5 125 125"><path fill="#fff" d="M70.927 17.914c.347-2.6.573-5.229.573-7.917s-.227-5.315-.573-7.917l-16.248-4.066c-1.053-3.946-2.6-7.691-4.599-11.153l8.598-14.346c-3.227-4.196-6.998-7.964-11.21-11.204l-14.329 8.604c-3.473-1.993-7.205-3.549-11.164-4.605l-4.065-16.245c-2.605-.34-5.228-.563-7.917-.563s-5.309.23-7.911.573l-4.065 16.242c-3.939 1.049-7.685 2.605-11.14 4.599l-14.346-8.604c-4.202 3.239-7.964 7.001-11.204 11.21l8.604 14.339c-2.006 3.462-3.562 7.201-4.619 11.153l-16.235 4.065c-.344 2.603-.577 5.222-.577 7.918 0 2.697.233 5.318.577 7.917l16.235 4.066c1.056 3.951 2.612 7.689 4.619 11.156l-8.611 14.342c3.239 4.199 7.001 7.965 11.21 11.203l14.346-8.604c3.462 2 7.201 3.559 11.146 4.611l4.066 16.25c2.603.332 5.228.559 7.917.559s5.312-.227 7.917-.559l4.065-16.25c3.959-1.066 7.691-2.611 11.163-4.617l14.343 8.609c4.199-3.246 7.971-7.004 11.21-11.209l-8.61-14.35c1.999-3.459 3.545-7.191 4.598-11.143l16.236-4.064zm-60.928 13.582c-11.883 0-21.503-9.623-21.503-21.5s9.62-21.503 21.503-21.503c11.876 0 21.513 9.627 21.513 21.503s-9.637 21.5-21.513 21.5"/></svg>