<svg xmlns="http://www.w3.org/2000/svg" width="32" height="37" viewBox="0 0 32 37"><path fill="#78909c" d="M15.492 7.238c-7.995 0-14.499 6.488-14.499 14.459 0 7.973 6.504 14.46 14.499 14.46 7.996 0 14.5-6.487 14.5-14.46 0-7.971-6.504-14.459-14.5-14.459m0 24.976c-5.814 0-10.544-4.717-10.544-10.517 0-5.798 4.73-10.516 10.544-10.516s10.545 4.717 10.545 10.516c0 5.8-4.73 10.517-10.545 10.517m2.637-10.517c0 .971-.533 1.809-1.318 2.266v1.17c0 .363-.297.686-.658.686h-1.318c-.363 0-.66-.322-.66-.686v-1.17c-.785-.457-1.318-1.295-1.318-2.266s.533-1.809 1.318-2.264v-4.788c0-.362.297-.657.66-.657h1.318c.361 0 .658.295.658.657v4.788c.785.456 1.318 1.294 1.318 2.264m-2.637-17.034c-.67 0-1.987.046-2.636.123v-3.245c0-.362.296-.698.659-.698h3.954c.363 0 .66.336.66.698v3.245c-.649-.078-1.967-.123-2.637-.123m15.322 4.933l-1.951 1.945c-.404-.511-.838-1.007-1.312-1.479-.473-.472-.971-.906-1.484-1.309l1.951-1.945c.258-.255.678-.255.934 0l1.863 1.859c.255.255.255.674-.001.929"/></svg>