<svg xmlns="http://www.w3.org/2000/svg" width="125" height="125" viewBox="0 0 125 125"><g fill="#fff"><path d="M103.812 19.924c-3.921 0-7.098 3.178-7.098 7.095v30.749c0 1.307-1.06 2.366-2.365 2.366-1.305 0-2.366-1.06-2.366-2.366v-44.942c0-3.917-3.176-7.095-7.095-7.095-3.92 0-7.097 3.177-7.097 7.095v40.211c0 1.307-1.061 2.368-2.366 2.368-1.304 0-2.365-1.062-2.365-2.368v-44.941c0-3.919-3.178-7.096-7.096-7.096-3.919 0-7.097 3.177-7.097 7.096v44.941c0 1.307-1.058 2.368-2.364 2.368-1.305 0-2.365-1.062-2.365-2.368v-35.479c0-3.919-3.178-7.096-7.097-7.096-3.918 0-7.096 3.177-7.096 7.096v59.134l-9.58-13.107c-2.84-4.378-8.378-5.844-12.437-3.335-4.045 2.562-5.048 8.154-2.247 12.517 0 0 15.45 23.383 22.036 33.396 6.585 10.006 17.253 17.837 37.203 17.837 33.03 0 35.986-25.508 35.986-33.113v-63.867c0-3.918-3.177-7.096-7.094-7.096z"/></g></svg>