<?xml version="1.0" encoding="utf-8"?>
<!-- Generator: Adobe Illustrator 16.0.0, SVG Export Plug-In . SVG Version: 6.00 Build 0)  -->
<!DOCTYPE svg PUBLIC "-//W3C//DTD SVG 1.1//EN" "http://www.w3.org/Graphics/SVG/1.1/DTD/svg11.dtd">
<svg version="1.1" id="Layer_1" xmlns="http://www.w3.org/2000/svg" xmlns:xlink="http://www.w3.org/1999/xlink" x="0px" y="0px"
	 width="100px" height="100px" viewBox="0 0 100 100" enable-background="new 0 0 100 100" xml:space="preserve">
<g>
	<g>
		<path fill="#7E939E" d="M50.022,24.724c15.537,0,28.131-5.533,28.131-12.362C78.153,5.534,65.56,0,50.022,0
			C34.488,0,21.895,5.534,21.895,12.362C21.895,19.191,34.488,24.724,50.022,24.724z M49.967,28.278
			c-15.534,0.077-25.879-3.529-28.545-11.051l3.359,62.017h0.07c0.936,6.434,11.106,11.516,25.172,11.516
			s23.604-5.334,25.173-11.516h0.069l3.313-61.551C77.431,23.112,67.683,28.192,49.967,28.278z M34.461,90.935
			C34.748,95.969,41.79,100,50.443,100c8.749,0,15.856-4.123,15.985-9.24c-4.189,1.771-9.622,2.865-15.986,2.865
			C44.187,93.625,38.706,92.617,34.461,90.935z"/>
	</g>
</g>
</svg>
