<svg xmlns="http://www.w3.org/2000/svg" width="38" height="38" viewBox="0 -4.5 38 38" enable-background="new 0 -4.5 38 38"><path fill="#fff" d="M18.999 11.888c-2.847 0-5.164 2.307-5.164 5.143s2.317 5.143 5.164 5.143c2.851 0 5.166-2.307 5.166-5.143s-2.315-5.143-5.166-5.143zm15.271-7.568h-8.287l-.435-2.218c-.151-.772-.733-1.32-1.405-1.32h-10.285c-.672 0-1.255.548-1.406 1.32l-.433 2.218h-3.567v-.704c0-.354-.289-.641-.644-.641h-3.307c-.355 0-.645.287-.645.641v.704h-.126c-1.509 0-2.731 1.218-2.731 2.72v18.456c0 1.502 1.223 2.722 2.731 2.722h30.54c1.51 0 2.731-1.22 2.731-2.722v-18.455c0-1.502-1.224-2.721-2.731-2.721zm-27.946 5.721c-.775 0-1.404-.626-1.404-1.398s.629-1.399 1.404-1.399c.775 0 1.405.626 1.405 1.399 0 .771-.629 1.398-1.405 1.398zm12.675 15.691c-4.818 0-8.738-3.902-8.738-8.701 0-4.798 3.92-8.702 8.738-8.702 4.819 0 8.739 3.904 8.739 8.702 0 4.799-3.92 8.701-8.739 8.701zm15.237-16.2h-5.527v-2.288h5.527v2.288z"/></svg>