<svg xmlns="http://www.w3.org/2000/svg" width="175.026" height="39.319" viewBox="0 0 175.026 39.319">
  <path id="noun_switch_3835057" d="M174.51,52.125H122.28a10.34,10.34,0,0,0-16.625-5.613l-32.064,8.5a5.011,5.011,0,0,0,0-.513A10.34,10.34,0,0,0,53.23,52.125H1v5.312H53.407a10.375,10.375,0,0,0,9.915,7.4,10.251,10.251,0,0,0,7.9-3.7l30.825-8.162a10.818,10.818,0,0,0-.124,1.523,10.34,10.34,0,0,0,20.255,2.939H174.51Zm-111.224,7.4A5.028,5.028,0,1,1,68.279,54.5a4.887,4.887,0,0,1-.443,2.036h0a4.993,4.993,0,0,1-4.55,2.992Zm48.937,0a5.028,5.028,0,1,1,5.028-5.028,5.028,5.028,0,0,1-5.028,5.028Z" transform="translate(-1 -44.163)" fill="#c55a11"/>
</svg>
