<svg xmlns="http://www.w3.org/2000/svg" width="125" height="125" viewBox="-0.5 -1.5 125 125"
    enable-background="new -0.5 -1.5 125 125">
    <path fill="#fff"
        d="M.5 110.673l11.091 10.923 18.952-18.668 1.186.903c6.243 4.753 14.071 7.372 22.048 7.372 9.475 0 18.332-3.584 24.935-10.091l26.749-26.401-9.985-9.838 26.459-26.083c2.071-2.041 2.089-5.472.039-7.492-.98-.965-2.306-1.496-3.737-1.496-1.466 0-2.887.573-3.903 1.574l-26.43 26.039-22.351-22.021 26.468-26.084c2.071-2.041 2.088-5.471.041-7.489-.929-.915-2.225-1.417-3.648-1.417-1.572 0-3.087.605-4.158 1.659l-26.266 25.882-9.971-9.824-26.77 26.38c-12.63 12.446-13.833 32.396-2.8 46.407l.922 1.169-18.871 18.596z" />
</svg>