<svg xmlns="http://www.w3.org/2000/svg" width="125" height="125" viewBox="3.5 2.5 125 125" enable-background="new 3.5 2.5 125 125"><path fill="#fff" d="M19.417 125.583l-1.269-1.242-13.648-13.445 17.97-17.706c-10.408-14.307-8.906-34.073 3.734-46.528l27.346-26.947 9.343 9.205 22.352-22.025c1.598-1.575 3.842-2.478 6.155-2.478 2.189 0 4.207.8 5.68 2.251 3.198 3.152 3.182 8.297-.039 11.469l-22.544 22.217 16.428 16.184 22.507-22.175c1.545-1.524 3.701-2.397 5.916-2.397 2.195 0 4.241.825 5.764 2.323 3.199 3.154 3.183 8.301-.037 11.473l-22.535 22.217 9.354 9.215-27.321 26.968c-6.794 6.693-15.895 10.379-25.628 10.379-7.704 0-15.275-2.385-21.482-6.737l-18.046 17.779zm-10.399-14.687l10.393 10.237 17.76-17.495 1.111.848c5.85 4.453 13.186 6.908 20.662 6.908 8.877 0 17.178-3.359 23.367-9.456l25.064-24.742-9.355-9.216 24.793-24.443c1.943-1.913 1.96-5.129.037-7.022-.917-.902-2.161-1.401-3.503-1.401-1.373 0-2.706.539-3.657 1.476l-24.765 24.4-20.946-20.636 24.801-24.443c1.943-1.913 1.959-5.126.039-7.018-.868-.856-2.083-1.328-3.419-1.328-1.474 0-2.894.567-3.896 1.555l-24.612 24.253-9.344-9.206-25.086 24.722c-11.835 11.662-12.963 30.358-2.624 43.487l.864 1.096-17.684 17.424z"/></svg>