<svg xmlns="http://www.w3.org/2000/svg"
    xmlns:xlink="http://www.w3.org/1999/xlink"
    width="140"
    height="62"
    viewBox="0 0 140 62">
    <path opacity=".5"
        fill-rule="evenodd"
        clip-rule="evenodd"
        d="M108.874 61.012h-77.772c-16.637 0-30.124-13.436-30.124-30.012 0-16.575 13.487-30.012 30.125-30.012h77.772c16.637 0 30.125 13.438 30.125 30.012-.001 16.576-13.489 30.012-30.126 30.012z"/>
    <path opacity=".7" fill-rule="evenodd"
        clip-rule="evenodd" fill="#fff"
        d="M119.999 31c0 8.01-6.492 14.504-14.5 14.504s-14.5-6.494-14.5-14.504 6.492-14.503 14.5-14.503 14.5 6.493 14.5 14.503zm-14.5-9.426c-5.205 0-9.426 4.22-9.426 9.426 0 5.207 4.221 9.428 9.426 9.428s9.425-4.221 9.425-9.428c0-5.206-4.22-9.426-9.425-9.426z"/>

    <path fill-rule="evenodd" clip-rule="evenodd"
        fill="#fff" d="M7.478 30.934c0-14.36 11.641-26.002 25.999-26.002s25.998 11.642 25.998 26.002c0 14.361-11.64 26.001-25.998 26.001s-25.999-11.64-25.999-26.001z"/></svg>