<?xml version="1.0" encoding="utf-8"?>
<!-- Generator: Adobe Illustrator 16.0.0, SVG Export Plug-In . SVG Version: 6.00 Build 0)  -->
<!DOCTYPE svg PUBLIC "-//W3C//DTD SVG 1.1//EN" "http://www.w3.org/Graphics/SVG/1.1/DTD/svg11.dtd">
<svg version="1.1" id="Layer_1" xmlns="http://www.w3.org/2000/svg" xmlns:xlink="http://www.w3.org/1999/xlink" x="0px" y="0px"
	 width="100px" height="100px" viewBox="0 0 100 100" enable-background="new 0 0 100 100" xml:space="preserve">
<g>
	<g>
		<path fill="#78909c" d="M59.784,58.105V10.335C59.784,4.636,54.946,0,49.001,0c-5.946,0-10.784,4.636-10.784,10.335v47.771
			c-7.6,3.817-12.406,11.336-12.406,19.671C25.812,90.032,36.215,100,49.001,100c12.787,0,23.188-9.968,23.188-22.224
			C72.189,69.441,67.387,61.923,59.784,58.105z M49.001,5.925c2.535,0,4.602,1.98,4.602,4.41V44.69H44.4V10.335
			C44.4,7.905,46.465,5.925,49.001,5.925z"/>
	</g>
</g>
</svg>
