<?xml version="1.0" encoding="utf-8"?>
<!-- Generator: Adobe Illustrator 19.2.0, SVG Export Plug-In . SVG Version: 6.00 Build 0)  -->
<svg version="1.1" id="Layer_1" xmlns="http://www.w3.org/2000/svg" xmlns:xlink="http://www.w3.org/1999/xlink" x="0px" y="0px"
	 viewBox="0 0 594 508.5" style="enable-background:new 0 0 594 508.5;" xml:space="preserve">
<style type="text/css">
	.st0{fill:#90A4AE;}
</style>
<g>
	<path class="st0" d="M432.1,232.4c-23.6-56.5-55.2-108.5-89.6-159c-13.8-20.2-28.1-40.1-43.1-59.4c-2.6-3.3-4.2-4.3-7.4-0.1
		c-27.6,36.7-54.1,74.2-77.9,113.6c-28.4,46.9-53.8,95.3-69.8,148.1c-12.1,40-14.3,79.9,1,119.7c27.5,71.2,101.1,112.6,178.4,100.1
		c76.3-12.4,135-82.3,133.7-159c-0.4-5.8-0.6-11.6-1.2-17.4C453.1,288.7,443.7,260.2,432.1,232.4z M243.8,390.5
		c-4.4,7.4-13.4,12.4-22.3,10.5c-13.1-2.2-22.4-10.7-28.3-20.8c-15.5-26.7-16-54.6-9.1-85.4c6-26.5,16.3-51.1,27.3-75.4
		c0.3-0.6,0.7-1,2-2.8c-3.3,18.5-6,35.5-5.7,53c0.6,30.1,9.1,57.5,24.3,82.5c3.2,5.2,6.6,10.2,9.8,15.4
		C246.4,374.8,248.7,382.4,243.8,390.5z"/>
	<path class="st0" d="M587.9,352.5c-4.6-12.2-18-34.3-54.1-27.9c-49.2,8.7-66.5,104.7-66.5,104.7c31.5-19.8,46.7-18.3,86-22.4
		c29.1-3.1,35.2-27.2,36.5-39.6C590.3,362.2,589.7,357.2,587.9,352.5z M528.6,335.5c0,0,44.1-9,49,27.4
		C577.6,363,564.5,339,528.6,335.5z"/>
	<path class="st0" d="M4.2,367.3c1.2,12.4,7.4,36.6,36.5,39.6c39.3,4.1,54.5,2.5,86,22.4c0,0-17.3-96-66.5-104.7
		c-36.1-6.4-49.6,15.7-54.1,27.9C4.3,357.2,3.7,362.2,4.2,367.3z M16.4,363c4.9-36.4,49-27.4,49-27.4C29.5,339,16.4,363,16.4,363z"
		/>
	<path class="st0" d="M532.1,443c-1.8-2.5-4.1-4.6-6.9-6.1c-6.8-3.7-21.6-9.1-34.2,4.1c-17.1,17.8-22,25.8-44.2,34.4
		c0,0,55.9,24.8,79,3.7C542.9,463.7,536.6,449.5,532.1,443z M527.4,460.2c0,0,2.4-15.4-19.3-18.7
		C508.1,441.5,532.7,439.4,527.4,460.2z"/>
	<path class="st0" d="M64.7,479.2c23.2,21.1,79-3.7,79-3.7c-22.2-8.6-27.1-16.5-44.2-34.4c-12.6-13.2-27.4-7.8-34.2-4.1
		c-2.8,1.5-5.1,3.5-6.9,6.1C53.9,449.5,47.7,463.7,64.7,479.2z M82.4,441.5c-21.7,3.3-19.3,18.7-19.3,18.7
		C57.8,439.4,82.4,441.5,82.4,441.5z"/>
</g>
</svg>
