<svg xmlns="http://www.w3.org/2000/svg" width="51" height="118" viewBox="0 0 51 118">
    <g fill="none" fill-rule="evenodd">
        <path stroke="#fff" stroke-width="3.938" d="M10.072 31.926a5.906 5.906 0 0 0-5.906 5.907v56.652c0 11.808 9.572 21.38 21.38 21.38 11.807 0 21.379-9.572 21.379-21.38V37.833a5.906 5.906 0 0 0-5.907-5.907H10.072z"/>
        <path stroke="#fff" stroke-width="3.938" d="M14.317 43.909h22.456V61.94H14.317z"/>
        <path fill="#fff" fill-rule="nonzero" d="M50.221 10.03l-3.808 3.686c-11.643-11.268-30.686-11.268-42.329 0L.167 10.031c13.82-13.375 36.235-13.375 50.054 0z"/>
        <path fill="#fff" fill-rule="nonzero" d="M6.934 19.704c4.722-4.38 11.131-6.722 17.877-6.722 6.746 0 13.154 2.342 17.877 6.722l-3.936 3.565c-7.645-6.926-20.125-6.926-27.77 0l-4.048-3.565z"/>
    </g>
</svg>
