<svg xmlns="http://www.w3.org/2000/svg" width="122" height="92" viewBox="0 0 122 92"><path fill="#fff" d="M0 .001v91.999h121.987v-91.999h-121.987zm115.34 85.305h-107.949v-78.612h107.949v78.612zm-84.326-36.546c.45 1.673 1.109 3.259 1.962 4.725l-3.662 6.072c1.377 1.782 2.977 3.376 4.766 4.749l6.097-3.646c1.472.847 3.062 1.504 4.741 1.951l1.729 6.881c1.104.142 2.222.24 3.366.24 1.145 0 2.263-.099 3.367-.24l1.729-6.881c1.682-.448 3.271-1.104 4.743-1.953l6.099 3.645c1.786-1.373 3.387-2.967 4.765-4.748l-3.661-6.072c.85-1.469 1.509-3.05 1.959-4.723l6.906-1.722c.143-1.1.241-2.213.241-3.354s-.099-2.253-.241-3.354l-6.906-1.722c-.45-1.673-1.109-3.256-1.959-4.723l3.658-6.074c-1.378-1.78-2.977-3.375-4.766-4.747l-6.097 3.645c-1.472-.847-3.062-1.503-4.741-1.951l-1.729-6.881c-1.104-.142-2.222-.24-3.367-.24s-2.262.098-3.366.24l-1.729 6.881c-1.677.448-3.267 1.104-4.736 1.951l-6.1-3.648c-1.788 1.373-3.388 2.967-4.766 4.749l3.66 6.074c-.853 1.466-1.513 3.05-1.962 4.725l-6.906 1.722c-.143 1.1-.241 2.213-.241 3.354s.099 2.254.241 3.354l6.906 1.721zm18.999-14.186c5.05 0 9.146 4.08 9.146 9.11s-4.095 9.111-9.146 9.111c-5.05 0-9.145-4.08-9.145-9.111s4.095-9.11 9.145-9.11zm26.892 23.878l-.062.11c-.363.653-.647 1.337-.843 2.038l-.034.121-3.315.826c-.069.53-.115 1.064-.115 1.609 0 .509.04 1.008.115 1.613l3.315.825.034.122c.196.702.48 1.388.842 2.035l.062.11-1.755 2.914c.635.819 1.367 1.561 2.288 2.281l2.925-1.75.11.062c.645.355 1.331.641 2.045.842l.122.035.829 3.301c.529.068 1.068.115 1.615.115.51 0 1.008-.041 1.619-.115l.829-3.301.122-.035c.718-.203 1.405-.488 2.046-.844l.111-.062 2.925 1.752c.822-.635 1.562-1.366 2.286-2.283l-1.755-2.912.061-.11c.356-.639.641-1.324.846-2.035l.034-.121 3.313-.825c.068-.528.115-1.064.115-1.613 0-.505-.041-1.003-.115-1.609l-3.313-.826-.033-.122c-.203-.711-.489-1.396-.846-2.037l-.062-.11 1.757-2.914c-.637-.819-1.372-1.557-2.293-2.278l-2.922 1.747-.112-.062c-.649-.359-1.337-.64-2.041-.838l-.122-.034-.829-3.303c-.534-.068-1.068-.115-1.619-.115-.506 0-1.006.04-1.615.115l-.829 3.303-.122.034c-.705.198-1.393.479-2.042.838l-.111.062-2.925-1.747c-.831.639-1.572 1.368-2.29 2.278l1.754 2.913zm8.179.027c2.591 0 4.699 2.098 4.699 4.678 0 2.581-2.108 4.682-4.699 4.682-2.59 0-4.696-2.101-4.696-4.682 0-2.581 2.106-4.678 4.696-4.678z"/></svg>